<?xml version="1.0" standalone="no"?>
<!DOCTYPE svg PUBLIC "-//W3C//DTD SVG 20010904//EN"
 "http://www.w3.org/TR/2001/REC-SVG-20010904/DTD/svg10.dtd">
<svg version="1.0" xmlns="http://www.w3.org/2000/svg"
 width="1260.000000pt" height="1260.000000pt" viewBox="0 0 1260.000000 1260.000000"
 preserveAspectRatio="xMidYMid meet">
<metadata>
Created by potrace 1.14, written by Peter Selinger 2001-2017
</metadata>
<g transform="translate(0.000000,1260.000000) scale(0.100000,-0.100000)"
fill="#000000" stroke="none">
<path d="M6497 11276 c-10 -8 -48 -14 -94 -15 -42 -1 -80 -4 -85 -7 -4 -3 -8
-1 -8 5 0 10 -112 7 -129 -3 -5 -3 -50 -6 -102 -7 -55 -1 -103 -8 -118 -15
-31 -17 -51 -18 -51 -3 0 5 -5 7 -12 3 -9 -6 -57 -12 -128 -15 -8 0 -35 -7
-60 -14 -25 -8 -67 -12 -94 -10 -29 2 -64 -2 -85 -11 -19 -8 -41 -12 -48 -10
-7 3 -23 -4 -36 -17 -12 -12 -30 -20 -39 -19 -10 2 -18 -2 -18 -8 0 -6 -12
-10 -27 -9 -16 2 -77 -1 -136 -5 -80 -6 -110 -12 -114 -23 -4 -11 -17 -13 -54
-8 -36 5 -49 4 -49 -6 0 -7 -3 -9 -7 -6 -3 4 -11 3 -17 -1 -6 -5 -38 -15 -71
-22 -33 -8 -63 -19 -67 -24 -4 -6 -23 -9 -41 -8 -19 2 -38 -1 -41 -7 -4 -6
-14 -7 -23 -4 -12 5 -14 3 -8 -7 6 -9 4 -11 -4 -6 -7 5 -17 1 -24 -7 -8 -10
-36 -17 -81 -21 -38 -3 -76 -12 -85 -19 -9 -8 -42 -26 -74 -41 -47 -22 -61
-25 -78 -15 -17 9 -29 7 -58 -8 -20 -10 -38 -21 -41 -25 -3 -3 -18 -10 -33
-13 -16 -4 -38 -21 -50 -37 -19 -26 -23 -27 -33 -13 -11 15 -14 15 -32 -3 -11
-11 -40 -22 -66 -26 -28 -5 -46 -12 -46 -21 0 -19 -27 -26 -34 -9 -5 13 -10
13 -36 -3 -16 -9 -30 -20 -30 -24 0 -3 -11 -4 -25 -1 -18 3 -25 0 -25 -11 0
-9 -12 -18 -29 -22 -16 -3 -35 -13 -42 -21 -6 -8 -21 -14 -33 -14 -12 0 -27
-5 -32 -10 -6 -6 -28 -12 -50 -13 -31 -3 -40 -8 -42 -26 -3 -17 -8 -20 -23
-16 -13 4 -34 -2 -57 -17 -20 -14 -50 -28 -65 -32 -16 -4 -41 -18 -55 -32 -15
-13 -44 -27 -64 -30 -23 -4 -38 -12 -38 -21 0 -7 -11 -18 -25 -23 -14 -5 -25
-16 -25 -25 0 -8 -4 -15 -10 -15 -5 0 -10 5 -10 10 0 6 -4 10 -10 10 -5 0 -10
-7 -10 -15 0 -8 -9 -15 -20 -15 -11 0 -20 -4 -20 -10 0 -5 -8 -10 -18 -10 -19
0 -55 -34 -65 -60 -5 -13 -6 -13 -6 0 -1 10 -6 8 -17 -8 -8 -12 -21 -22 -28
-22 -7 0 -25 -13 -41 -30 -16 -16 -43 -32 -61 -36 -17 -3 -41 -16 -52 -27 -29
-31 -50 -47 -60 -47 -5 0 -18 -11 -30 -25 -12 -14 -29 -25 -37 -25 -8 0 -15
-7 -15 -15 0 -9 -19 -24 -44 -34 -24 -11 -58 -33 -75 -50 -17 -17 -38 -31 -46
-31 -17 0 -57 -49 -49 -61 3 -5 2 -8 -3 -7 -24 7 -71 -13 -76 -31 -3 -12 -13
-21 -25 -21 -13 0 -22 -9 -26 -25 -4 -14 -12 -25 -20 -25 -7 0 -19 -7 -26 -15
-7 -8 -16 -13 -20 -10 -4 3 -17 -11 -29 -30 -11 -19 -24 -35 -29 -35 -6 0 -12
-9 -15 -21 -4 -13 -10 -18 -18 -13 -8 5 -10 3 -5 -5 5 -8 0 -14 -13 -18 -12
-3 -21 -9 -21 -13 0 -13 -78 -89 -84 -82 -3 3 -6 -2 -6 -11 0 -11 -8 -17 -23
-17 -22 0 -57 -31 -57 -50 0 -6 -7 -10 -15 -10 -8 0 -15 -4 -15 -10 0 -5 -7
-10 -15 -10 -9 0 -19 -8 -22 -17 -4 -10 -21 -31 -37 -47 -17 -17 -30 -34 -28
-38 1 -5 -5 -11 -13 -14 -8 -4 -15 -16 -16 -28 0 -11 -3 -16 -5 -10 -7 16
-114 -95 -114 -118 0 -11 -8 -22 -20 -25 -11 -3 -20 -9 -20 -14 0 -5 -5 -9
-11 -9 -15 0 -49 -39 -49 -57 0 -7 -11 -18 -25 -23 -14 -5 -25 -15 -25 -22 0
-7 -12 -24 -25 -37 -15 -14 -25 -34 -25 -52 0 -21 -4 -27 -15 -23 -9 4 -15 0
-15 -10 0 -9 -6 -16 -13 -16 -7 0 -19 -16 -27 -35 -8 -20 -26 -40 -44 -49 -17
-9 -25 -16 -18 -16 19 0 -4 -40 -23 -40 -8 0 -15 -4 -15 -9 0 -5 -15 -26 -34
-45 -18 -20 -30 -39 -25 -41 10 -7 1 -36 -16 -50 -6 -5 -18 -35 -25 -65 -15
-63 -26 -81 -46 -73 -8 3 -14 -1 -14 -11 0 -19 -31 -57 -41 -51 -13 9 -31 -25
-31 -60 0 -19 -4 -32 -9 -29 -5 3 -9 -4 -9 -14 0 -11 -7 -25 -15 -32 -8 -7
-15 -9 -15 -5 0 4 -9 -4 -20 -18 -24 -31 -26 -49 -3 -40 11 4 14 3 9 -6 -4 -6
-17 -11 -29 -9 -16 2 -22 -2 -21 -14 1 -10 -2 -18 -6 -18 -4 0 -10 -27 -13
-59 -4 -43 -13 -71 -34 -103 -24 -34 -28 -49 -22 -70 5 -18 3 -31 -4 -35 -23
-15 -39 -55 -28 -66 28 -28 1 -84 -34 -70 -13 4 -16 3 -11 -6 4 -6 2 -18 -4
-26 -6 -8 -9 -19 -5 -25 3 -5 -1 -13 -10 -16 -14 -6 -14 -8 2 -27 17 -20 17
-20 -1 -14 -16 6 -18 3 -14 -23 4 -27 -4 -41 -15 -22 -2 4 -2 0 0 -8 3 -8 7
-31 9 -50 3 -25 2 -29 -4 -16 -8 18 -9 18 -15 2 -4 -10 -1 -19 8 -22 8 -4 15
-11 15 -16 0 -6 -6 -8 -14 -5 -18 7 -36 -12 -36 -39 0 -12 -7 -27 -15 -34 -8
-7 -15 -18 -15 -26 0 -7 -9 -15 -19 -19 -20 -6 -35 -42 -20 -50 8 -6 5 -20
-11 -60 -10 -23 -19 -66 -26 -115 -9 -66 -14 -80 -29 -80 -20 0 -19 -20 1 -34
14 -10 13 -14 -5 -37 -21 -27 -36 -105 -22 -114 11 -6 5 -53 -9 -70 -7 -8 -10
-21 -7 -29 4 -9 1 -57 -5 -108 -9 -70 -16 -96 -30 -106 -10 -7 -18 -21 -18
-31 0 -21 -47 -71 -66 -71 -18 0 -18 -16 0 -23 8 -3 17 -1 20 6 3 9 5 8 5 -1
1 -7 6 -10 11 -7 6 3 10 0 10 -8 0 -8 7 -17 15 -21 9 -3 15 -18 15 -35 0 -17
7 -34 16 -39 10 -5 17 -27 19 -58 2 -27 7 -72 11 -100 4 -34 2 -59 -6 -74 -11
-20 -10 -25 4 -35 18 -14 21 -38 7 -63 -6 -11 -2 -42 10 -87 10 -38 16 -83 14
-100 -11 -68 -13 -145 -4 -145 5 0 9 7 9 16 0 8 5 12 10 9 7 -4 7 -12 2 -18
-4 -7 -7 -32 -5 -57 2 -25 5 -61 6 -81 1 -21 6 -35 12 -33 7 3 11 -16 12 -48
0 -29 4 -69 8 -88 4 -19 9 -46 10 -58 1 -13 8 -28 16 -33 10 -6 10 -9 2 -9
-18 0 -16 -25 2 -44 8 -8 15 -19 15 -25 0 -5 8 -14 17 -20 13 -7 18 -22 18
-58 0 -26 3 -52 7 -58 3 -5 9 -31 13 -58 5 -30 15 -53 27 -61 14 -10 16 -15 6
-19 -10 -4 -8 -10 7 -22 11 -9 20 -19 21 -23 7 -44 19 -72 29 -69 6 3 12 -1
12 -9 0 -8 -4 -14 -9 -14 -16 0 -8 -29 11 -40 13 -7 21 -23 23 -48 2 -22 8
-36 15 -35 7 2 16 -12 21 -30 5 -17 14 -31 21 -29 6 1 11 -11 11 -30 0 -18 6
-42 13 -54 6 -12 24 -44 40 -73 15 -28 32 -51 37 -51 12 0 42 -69 35 -80 -3
-5 2 -15 10 -23 8 -9 15 -18 15 -22 0 -3 9 -16 20 -28 12 -12 17 -23 11 -25
-11 -4 28 -82 41 -82 4 0 8 -4 8 -10 0 -5 16 -25 36 -44 20 -19 33 -40 29 -45
-8 -14 12 -51 46 -83 16 -15 26 -33 23 -41 -3 -9 3 -16 17 -20 14 -4 20 -11
16 -21 -3 -8 -2 -18 3 -21 6 -4 10 -13 10 -21 0 -16 3 -20 77 -102 29 -31 53
-64 53 -73 0 -9 9 -24 20 -34 11 -10 22 -26 26 -37 3 -11 12 -17 19 -14 9 3
15 -3 17 -17 2 -12 8 -21 14 -20 6 1 17 -8 25 -19 8 -12 24 -30 37 -42 12 -11
36 -42 53 -68 17 -26 35 -48 39 -48 11 0 90 -78 90 -90 0 -5 4 -10 9 -10 5 0
26 -16 46 -35 20 -20 40 -33 45 -30 4 3 14 -11 20 -31 8 -23 15 -32 20 -24 5
8 11 7 24 -5 9 -9 16 -21 16 -26 0 -23 316 -309 341 -309 5 0 9 -7 9 -15 0 -8
11 -17 25 -21 14 -3 34 -17 44 -30 13 -16 25 -22 42 -18 13 2 18 1 11 -2 -16
-7 3 -34 24 -34 8 0 22 -8 32 -18 19 -19 52 -36 64 -34 4 1 5 -4 2 -11 -3 -8
6 -19 18 -26 49 -25 70 -39 94 -60 13 -11 27 -21 30 -21 3 0 14 -10 25 -22 13
-17 19 -19 19 -8 0 12 3 11 11 -2 5 -10 17 -18 24 -18 8 0 15 -4 15 -10 0 -5
20 -18 45 -29 25 -11 45 -25 45 -30 0 -6 6 -11 13 -11 7 0 31 -8 53 -19 21
-10 58 -26 82 -37 23 -10 42 -21 42 -24 0 -4 25 -19 55 -35 30 -15 55 -32 55
-37 0 -6 11 -8 25 -6 14 3 25 2 25 -3 0 -4 32 -19 70 -34 38 -15 70 -31 70
-36 0 -6 5 -7 10 -4 6 3 10 -1 10 -9 0 -11 9 -16 30 -16 20 0 30 -5 30 -15 0
-8 3 -14 8 -13 12 3 56 -14 67 -26 5 -7 37 -23 70 -35 33 -13 74 -34 90 -46
17 -11 46 -27 65 -35 19 -7 75 -33 124 -57 49 -23 95 -43 102 -43 32 0 23 -42
-18 -85 -22 -23 -68 -92 -68 -103 0 -7 57 52 100 104 25 29 27 30 90 23 36 -4
76 -10 90 -13 14 -4 63 -14 110 -22 47 -8 94 -19 105 -24 11 -5 43 -11 70 -13
116 -12 231 -28 250 -37 11 -4 27 -8 35 -8 39 0 168 -15 190 -22 29 -10 134
-20 270 -26 52 -2 95 -4 95 -5 0 -15 409 -35 805 -40 130 -1 471 24 680 52 47
6 96 12 110 13 14 2 40 6 58 10 19 5 43 10 55 12 45 7 123 23 142 29 11 3 45
11 75 18 30 6 60 16 67 20 6 4 32 8 57 9 25 1 46 6 46 10 0 4 13 8 28 8 15 0
32 4 37 9 6 4 39 14 74 20 35 7 71 16 80 21 9 4 68 20 131 35 63 15 124 33
135 38 11 6 30 13 41 14 22 3 164 54 329 117 50 18 106 40 125 47 63 23 168
68 265 114 39 18 80 36 93 40 12 3 22 11 22 16 0 5 5 9 12 9 13 0 83 30 143
62 22 12 67 35 100 51 33 17 64 37 68 44 4 7 15 13 23 13 9 0 28 8 42 18 15
10 45 27 67 37 22 11 42 23 45 26 3 3 19 14 35 23 60 33 105 62 192 121 48 33
99 65 111 72 13 7 37 24 54 38 16 14 33 25 38 25 4 0 31 18 59 40 28 22 54 40
58 40 4 0 23 14 42 30 18 17 37 30 42 30 4 0 14 6 21 14 8 7 27 20 43 29 17 9
50 34 74 56 24 23 47 41 52 41 5 0 48 39 96 86 49 47 125 121 169 165 45 43
85 79 90 79 5 0 14 9 19 19 6 11 47 60 93 110 47 52 82 100 82 112 0 12 4 17
11 14 11 -8 49 22 49 39 0 6 15 24 34 41 18 16 40 44 49 60 9 17 41 54 71 84
31 30 56 60 56 68 0 7 9 18 20 25 11 7 20 18 20 24 0 6 9 19 20 29 11 10 29
37 40 61 12 24 30 46 41 49 11 4 17 10 14 15 -3 5 10 30 30 55 19 26 35 52 35
60 0 7 7 15 15 19 8 3 15 12 15 21 0 8 5 15 10 15 6 0 10 6 10 14 0 8 7 17 16
20 9 4 14 13 10 22 -3 8 -2 12 4 9 11 -7 29 25 23 43 -3 6 0 12 6 12 6 0 11 8
11 18 0 9 10 22 23 27 15 7 23 20 25 43 2 20 9 32 18 32 9 0 12 5 8 11 -3 6
-3 14 2 18 14 9 34 49 34 65 0 9 9 24 20 34 11 11 22 28 24 39 3 11 14 37 25
59 12 21 21 49 21 61 0 12 5 25 10 28 6 3 10 17 10 30 0 12 7 25 15 29 9 3 15
18 15 35 0 20 7 34 21 41 12 7 18 18 15 26 -3 8 1 14 9 14 9 0 15 10 15 26 0
15 -4 23 -11 18 -6 -3 -4 8 5 24 9 17 16 38 16 46 0 8 10 24 21 35 18 17 21
28 17 65 -5 39 -3 46 14 52 15 4 19 13 16 34 -3 17 0 26 6 24 7 -3 12 16 13
48 1 35 7 54 17 60 11 6 14 17 10 35 -4 16 -2 28 7 34 12 8 12 11 -1 19 -12 7
-12 12 -2 22 6 6 12 21 13 33 0 20 0 20 9 0 7 -16 9 -13 9 18 1 20 5 37 9 37
5 0 7 14 6 30 -1 18 3 30 10 30 17 0 13 50 -7 88 -20 37 -15 57 6 27 12 -16
14 -15 14 14 0 17 -5 31 -10 31 -6 0 -2 8 7 19 9 10 18 40 21 67 2 27 4 51 6
54 6 13 11 72 12 145 1 44 6 83 12 87 6 4 5 27 -2 63 -10 44 -10 61 0 77 10
16 9 22 -1 25 -10 4 -8 8 5 18 13 10 15 17 7 25 -14 15 -7 115 11 152 9 19 10
29 2 37 -7 7 -7 18 3 36 11 21 12 30 2 45 -17 28 -15 38 13 64 23 21 24 25 10
39 -10 11 -13 25 -8 48 4 23 2 35 -9 43 -12 9 -14 23 -8 65 4 30 3 72 -1 95
-4 23 -4 45 1 50 5 5 3 17 -3 28 -10 15 -9 21 3 28 11 7 11 10 2 10 -7 0 -10
5 -7 11 4 5 -1 19 -10 29 -11 12 -16 29 -13 45 4 19 1 25 -13 25 -11 0 -19 5
-19 10 0 6 7 10 16 10 11 0 14 6 9 20 -3 10 -2 35 4 55 5 21 6 33 0 30 -5 -4
-9 -1 -9 5 0 6 -9 14 -21 18 l-20 8 21 27 c18 23 20 32 11 63 -7 24 -7 43 0
55 7 14 5 21 -10 28 -16 9 -34 61 -36 107 0 6 -7 18 -16 27 -9 8 -22 29 -29
46 -7 17 -15 31 -19 31 -4 0 -8 13 -9 30 -1 16 -7 41 -12 55 -6 15 -10 40 -10
57 0 17 -13 49 -30 75 -16 24 -30 50 -30 58 0 8 -4 17 -10 20 -5 3 -10 15 -10
26 0 11 -9 29 -19 41 -11 11 -25 42 -31 69 -7 27 -16 49 -21 49 -5 0 -9 11 -9
24 0 17 -7 26 -24 30 -18 4 -25 15 -30 46 -3 22 -11 40 -16 40 -6 0 -10 19
-10 42 0 42 -12 43 -24 3 -3 -11 -4 -5 -2 13 2 21 -2 32 -11 32 -7 0 -13 8
-13 18 0 25 -34 93 -57 113 -31 28 -53 59 -53 76 0 9 -3 13 -7 10 -10 -10 -33
13 -33 34 0 23 -51 82 -95 109 -24 15 -35 31 -44 65 -9 36 -14 43 -29 38 -15
-6 -16 -5 -2 12 11 14 12 19 3 22 -7 3 -13 11 -13 19 0 9 -5 12 -11 8 -6 -4
-10 1 -8 12 1 11 -1 27 -6 37 -7 16 -9 17 -25 2 -16 -15 -18 -14 -24 20 -4 19
-11 33 -17 30 -5 -4 -9 2 -9 12 0 10 -10 23 -22 28 -12 6 -26 24 -30 40 -9 37
-50 85 -72 85 -9 0 -16 8 -16 20 0 11 -4 20 -10 20 -5 0 -10 9 -10 20 0 11 -3
19 -7 19 -23 -4 -34 4 -49 34 -9 17 -27 43 -40 56 -13 13 -21 27 -18 32 3 5 0
9 -5 9 -6 0 -11 6 -11 13 0 20 -72 89 -87 83 -8 -3 -13 2 -13 14 0 21 -8 24
-48 20 -20 -1 -23 2 -17 19 5 16 2 21 -10 21 -11 0 -15 5 -11 15 4 10 -2 19
-17 25 -37 15 -72 44 -72 60 0 8 -11 20 -24 26 -13 7 -28 18 -32 26 -7 11 -11
10 -20 -2 -8 -11 -9 -7 -5 20 3 19 2 29 -2 23 -6 -9 -12 -7 -22 7 -8 11 -21
20 -30 20 -17 0 -81 54 -79 67 3 20 -2 34 -11 28 -5 -3 -10 -1 -10 5 0 6 -4 9
-9 5 -5 -3 -13 0 -16 6 -4 5 -13 8 -21 5 -9 -3 -14 2 -14 15 0 15 -5 18 -23
14 -17 -5 -26 1 -39 23 -10 16 -15 31 -13 34 6 6 -110 79 -131 82 -18 3 -43
36 -44 59 0 10 -8 17 -18 17 -11 0 -29 9 -41 19 -13 11 -29 17 -37 14 -8 -3
-14 -1 -14 4 0 5 -20 15 -45 22 -27 8 -47 20 -50 32 -4 10 -15 19 -26 19 -10
0 -19 5 -19 10 0 6 -7 10 -15 10 -9 0 -20 11 -24 24 -10 24 -36 40 -52 30 -15
-9 -68 35 -75 62 -3 13 -12 24 -20 24 -20 0 -125 56 -118 63 3 3 -10 10 -30
15 -20 6 -58 27 -85 46 -47 35 -75 44 -84 29 -2 -5 -2 -2 -1 4 2 7 -4 16 -14
21 -21 10 -106 9 -147 -1 -25 -6 -26 -6 -7 2 27 13 29 31 2 31 -11 0 -20 5
-20 10 0 18 -31 10 -51 -12 -16 -20 -18 -21 -19 -5 0 21 -24 49 -34 40 -3 -4
-6 3 -6 15 0 17 -6 22 -25 22 -14 0 -25 3 -25 8 0 13 -54 33 -100 38 -25 3
-55 10 -68 16 -17 9 -25 9 -34 0 -18 -18 -38 -15 -56 8 -16 20 -19 20 -48 5
-31 -15 -64 -12 -64 6 0 5 -8 9 -18 9 -9 0 -22 10 -27 22 -7 15 -20 23 -39 25
-16 1 -34 9 -38 18 -5 8 -19 15 -32 15 -13 0 -29 7 -36 15 -7 8 -16 12 -21 9
-5 -3 -9 3 -10 13 0 10 -3 13 -5 6 -4 -8 -22 -10 -58 -6 -33 3 -56 1 -60 -5
-8 -13 -37 -4 -52 16 -6 8 -16 12 -23 8 -6 -4 -14 0 -17 8 -3 9 -13 16 -20 16
-8 0 -17 7 -20 15 -5 12 -18 15 -55 12 -34 -3 -49 0 -53 9 -3 8 -15 14 -27 14
-15 0 -19 4 -15 16 3 8 2 13 -2 10 -4 -2 -24 4 -45 14 -35 17 -39 18 -44 2
-14 -39 -26 -45 -45 -20 -10 13 -18 19 -17 13 5 -38 -25 -51 -36 -16 -3 11
-15 23 -26 26 -10 4 -19 10 -19 14 0 4 -58 6 -130 5 -86 -1 -127 2 -123 9 4 7
-16 8 -60 3 -57 -6 -67 -4 -67 9 0 12 -4 13 -17 7 -10 -5 -34 -7 -53 -5 -19 3
-56 6 -83 8 -26 1 -54 8 -62 15 -8 7 -15 9 -15 5 0 -4 -7 -2 -15 5 -16 14
-130 17 -158 5 -11 -4 -23 -3 -30 4 -6 6 -32 11 -57 11 -25 0 -59 4 -76 9 -19
5 -37 5 -48 -1 -11 -6 -22 -6 -31 2 -10 8 -14 8 -18 -2 -4 -10 -6 -10 -6 0 -1
16 -41 15 -64 -2z m1963 -390 c0 -3 -4 -8 -10 -11 -5 -3 -10 -1 -10 4 0 6 5
11 10 11 6 0 10 -2 10 -4z m-1585 -466 c3 -5 23 -10 44 -10 21 0 41 -3 45 -7
9 -10 76 -12 76 -2 0 4 -8 10 -17 12 -10 3 9 5 42 6 40 1 68 -4 83 -15 12 -8
22 -10 22 -5 0 6 -4 11 -10 11 -5 0 -10 5 -10 12 0 6 8 3 20 -7 11 -10 17 -21
15 -25 -5 -8 62 -6 130 4 36 5 42 3 58 -22 9 -15 17 -21 17 -14 0 17 30 15 30
-3 0 -17 0 -17 58 -6 34 7 46 5 64 -10 11 -11 34 -19 50 -19 21 0 28 -5 28
-20 0 -19 10 -24 38 -21 6 1 12 -2 12 -6 0 -5 15 -14 33 -21 17 -8 44 -20 60
-28 15 -8 27 -12 27 -9 0 3 10 -3 22 -14 14 -14 29 -19 45 -15 17 5 23 2 23
-11 0 -11 6 -15 19 -10 10 3 23 -1 30 -9 7 -8 24 -15 39 -16 90 -3 97 -5 94
-22 -4 -27 38 -23 70 7 l27 25 31 -32 c27 -27 35 -30 51 -20 17 11 19 9 20
-15 1 -18 3 -21 6 -10 2 9 9 15 14 12 13 -9 11 -43 -3 -47 -7 -3 -3 -12 11
-25 l23 -21 34 20 c19 11 34 26 34 32 0 7 11 18 25 24 30 14 46 16 26 3 -21
-14 -4 -53 22 -49 26 4 59 -33 61 -65 1 -19 7 -22 46 -22 43 0 45 -1 42 -27
-4 -37 14 -36 57 2 18 17 38 30 43 30 14 0 22 -30 10 -42 -13 -13 -5 -36 18
-48 15 -8 17 -6 13 10 -8 30 14 24 33 -9 10 -17 23 -27 31 -24 7 3 13 0 13 -6
0 -21 35 -51 60 -51 17 0 21 -3 12 -9 -10 -6 -3 -13 25 -24 21 -9 32 -16 25
-16 -17 -1 2 -22 36 -40 12 -6 22 -18 22 -26 0 -8 7 -15 16 -15 25 0 45 -25
31 -39 -8 -8 -4 -11 19 -11 22 0 34 -8 52 -35 25 -39 28 -61 10 -68 -7 -3 -3
-6 8 -6 12 -1 25 -8 28 -17 3 -8 10 -13 15 -9 5 3 12 1 16 -5 4 -6 10 -8 15
-5 5 3 11 -7 14 -22 4 -16 24 -43 46 -62 22 -19 40 -40 40 -47 0 -8 5 -14 10
-14 6 0 10 -7 10 -16 0 -8 13 -29 29 -46 25 -27 32 -30 45 -19 9 7 14 17 11
21 -2 4 2 16 10 26 13 18 14 18 15 1 0 -10 8 -20 18 -24 22 -8 73 -64 70 -77
-1 -6 6 -26 15 -44 10 -18 16 -36 13 -40 -6 -10 4 -25 28 -38 11 -6 23 -21 27
-35 4 -13 15 -53 25 -88 10 -35 24 -66 32 -68 15 -6 52 24 52 44 0 15 36 18
45 3 4 -6 1 -17 -5 -25 -10 -12 -9 -15 3 -15 9 0 21 8 26 18 9 15 12 15 20 2
7 -9 6 -19 -1 -27 -8 -10 -6 -13 5 -13 9 0 18 -13 22 -32 10 -52 38 -128 47
-128 4 0 8 -11 8 -25 0 -25 20 -37 20 -12 0 6 5 4 11 -6 8 -13 7 -22 -1 -32
-6 -8 -9 -18 -6 -24 3 -5 2 -21 -3 -34 -7 -19 -6 -28 5 -37 17 -15 19 -60 2
-60 -9 0 -9 -3 -1 -11 6 -6 9 -28 6 -50 -3 -23 -2 -39 4 -39 6 0 16 -15 24
-32 7 -18 19 -37 26 -41 15 -9 18 -57 3 -57 -5 0 -10 -4 -10 -10 0 -5 6 -10
13 -10 15 0 21 -46 6 -55 -6 -4 -1 -14 11 -25 18 -16 25 -17 42 -7 16 10 19
21 16 67 -3 55 -3 55 27 56 17 1 38 4 48 9 12 5 17 3 17 -9 0 -9 -7 -16 -15
-16 -18 0 -20 -16 -2 -24 10 -5 10 -7 0 -12 -18 -8 -16 -24 3 -24 8 0 12 -5 8
-11 -3 -6 0 -15 7 -20 10 -6 11 -9 2 -9 -7 0 -13 -11 -13 -25 0 -14 4 -25 10
-25 11 0 9 -22 -2 -30 -10 -8 9 -94 21 -98 15 -5 14 -62 0 -62 -8 0 -10 -17
-7 -50 3 -34 1 -53 -7 -58 -19 -11 -38 -52 -24 -52 8 0 8 -4 -1 -15 -7 -8 -9
-15 -5 -15 4 0 2 -6 -4 -14 -6 -7 -9 -28 -6 -47 4 -29 3 -30 -4 -9 -9 24 -9
23 -12 -10 l-2 -35 -4 33 c-2 17 -9 32 -14 32 -6 0 -7 -10 -4 -22 6 -19 5 -21
-6 -10 -20 18 -31 15 -24 -8 3 -11 3 -20 -2 -20 -13 0 -63 -46 -63 -59 0 -6
-4 -11 -10 -11 -5 0 -10 -7 -10 -15 0 -8 -8 -15 -17 -15 -14 0 -15 2 -4 9 17
11 4 19 -31 19 -25 0 -58 21 -58 38 0 10 -33 33 -47 34 -6 0 -27 -13 -45 -30
-18 -16 -43 -30 -56 -30 -13 0 -22 -5 -20 -12 1 -7 -4 -23 -12 -34 -11 -18
-17 -20 -37 -11 -13 5 -23 16 -23 23 0 8 -6 11 -16 7 -13 -5 -13 -7 -2 -14 7
-5 10 -9 6 -10 -11 -2 -26 -6 -35 -9 -5 -1 -11 -2 -15 -1 -5 0 -8 -5 -8 -12 0
-37 -85 -36 -92 1 -3 14 -5 14 -19 -1 -24 -24 -59 -18 -59 10 0 15 6 23 16 23
14 0 14 3 4 15 -17 20 -55 15 -54 -6 1 -9 -11 -20 -27 -26 -33 -13 -35 -11
-13 11 14 15 14 16 -3 17 -10 0 -42 2 -71 4 -28 1 -55 -1 -58 -6 -3 -5 4 -9
15 -9 11 0 23 -4 26 -10 3 -5 -3 -10 -14 -10 -11 0 -23 5 -27 11 -4 8 -12 3
-20 -12 -7 -13 -13 -19 -14 -12 0 6 -9 9 -22 5 -17 -4 -20 -2 -15 11 4 10 2
17 -3 17 -6 0 -10 -4 -10 -10 0 -5 -7 -10 -15 -10 -8 0 -15 -6 -15 -14 0 -7
-7 -19 -15 -26 -9 -7 -13 -21 -10 -31 6 -18 -8 -25 -37 -20 -5 0 -8 -4 -8 -9
0 -5 -3 -9 -7 -9 -25 4 -42 -4 -48 -21 -3 -11 -13 -20 -20 -20 -8 0 -12 -6 -9
-14 3 -8 1 -17 -5 -21 -6 -3 -11 1 -11 9 0 24 -17 19 -36 -9 -9 -14 -24 -25
-33 -25 -14 0 -14 -2 -1 -10 17 -11 11 -12 -45 -10 -34 1 -43 -3 -55 -24 -18
-35 -49 -43 -69 -18 -18 22 -63 33 -83 20 -10 -8 -10 -11 0 -15 24 -10 33 -40
16 -57 -8 -9 -21 -16 -28 -16 -17 0 -57 35 -49 44 3 3 1 6 -6 6 -13 0 -24 8
-77 57 -19 17 -43 35 -54 38 -15 5 -18 12 -13 35 10 54 -39 71 -76 26 -7 -9
-21 -16 -30 -16 -13 1 -12 4 6 19 24 20 21 31 -11 31 -27 1 -66 33 -66 55 0
29 -20 55 -43 55 -24 -1 -67 -32 -67 -49 0 -6 -11 -17 -25 -23 -14 -6 -25 -15
-25 -20 0 -16 -19 -8 -25 11 -7 23 -38 32 -124 37 -35 1 -66 5 -68 8 -3 3 -18
-1 -34 -9 -15 -8 -35 -15 -44 -15 -9 0 -13 -4 -10 -10 3 -5 1 -10 -5 -10 -18
0 -49 63 -48 97 1 38 8 46 27 33 8 -4 27 -3 42 2 21 7 29 17 29 34 0 14 -7 27
-16 31 -27 10 -68 -10 -74 -37 -5 -21 -11 -25 -38 -22 -18 2 -32 -1 -32 -7 0
-6 -9 -11 -20 -11 -11 0 -20 -4 -20 -8 0 -4 -13 -23 -29 -42 -24 -30 -31 -33
-44 -22 -9 8 -13 20 -10 28 14 37 -48 60 -67 25 -13 -25 -50 -24 -50 1 0 10
-7 18 -15 18 -8 0 -15 -7 -15 -15 0 -8 -10 -20 -22 -26 -13 -7 -28 -19 -34
-27 -9 -13 -14 -11 -32 8 -11 12 -25 19 -31 15 -6 -3 -12 2 -12 12 -1 17 -2
17 -6 1 -2 -10 -11 -18 -20 -18 -12 0 -14 7 -9 34 9 45 0 64 -35 71 -30 7 -37
19 -19 30 14 8 -6 35 -26 35 -22 0 -24 -17 -5 -41 20 -26 36 -117 24 -135 -10
-14 -43 -26 -43 -15 0 4 -13 6 -30 3 -17 -2 -30 0 -30 6 0 13 -104 5 -108 -8
-5 -13 -42 -13 -42 0 0 6 -10 10 -22 10 -19 0 -20 -2 -8 -10 9 -6 10 -10 3
-10 -7 0 -16 6 -20 13 -4 6 -18 18 -31 25 -24 14 -45 6 -65 -25 -10 -16 -147
-18 -147 -3 0 6 -7 10 -15 10 -11 0 -14 -7 -9 -25 4 -15 1 -32 -6 -40 -17 -20
-30 -19 -31 3 -1 16 -2 16 -6 0 -5 -18 -53 -26 -53 -9 0 5 -15 5 -36 1 -20 -5
-43 -6 -50 -3 -8 3 -16 -2 -20 -10 -6 -16 -50 -20 -76 -6 -13 7 -18 6 -19 -3
0 -10 -2 -10 -6 0 -2 6 -9 10 -14 7 -5 -3 -18 -1 -29 5 -13 7 -20 7 -20 1 0
-6 -7 -8 -16 -4 -10 4 -17 -1 -21 -16 -7 -27 -20 -27 -43 2 -19 22 -20 22 -50
5 -18 -10 -45 -18 -61 -18 -19 0 -34 -8 -44 -24 -8 -12 -31 -31 -50 -42 -34
-18 -34 -18 -60 6 -21 20 -28 22 -50 12 -14 -6 -25 -20 -25 -29 -1 -10 -9 -28
-20 -41 -17 -20 -23 -22 -54 -14 -27 8 -38 7 -46 -3 -7 -8 -32 -22 -57 -31
-43 -17 -46 -17 -58 -1 -24 33 -102 7 -88 -29 3 -8 0 -14 -6 -14 -6 0 -11 -4
-11 -10 0 -5 7 -10 15 -10 8 0 15 -4 15 -8 0 -19 -80 -4 -110 22 -49 41 -86
34 -114 -19 -12 -24 -13 -32 -3 -45 7 -8 14 -26 15 -40 2 -20 -5 -29 -33 -44
-19 -11 -35 -25 -35 -33 0 -8 -6 -13 -12 -12 -43 5 -55 -1 -50 -26 3 -20 0
-25 -15 -25 -11 0 -28 -8 -39 -18 -34 -31 -102 -62 -108 -49 -2 7 -5 5 -5 -4
-1 -9 -8 -20 -17 -23 -9 -4 -13 -13 -10 -24 4 -12 -7 -31 -36 -60 -22 -23 -44
-42 -48 -42 -4 0 -18 9 -31 20 -20 16 -21 19 -7 20 9 0 29 10 43 23 23 20 26
27 20 61 -7 37 -35 61 -43 38 -2 -7 -12 -12 -21 -12 -23 0 -20 49 4 63 9 5 15
18 13 31 -1 12 7 32 20 46 12 13 22 34 22 47 0 13 4 23 10 23 5 0 15 10 21 22
9 17 9 24 -4 33 -12 8 -15 22 -11 46 3 21 -1 44 -10 59 -8 14 -21 36 -28 50
-6 14 -13 26 -14 28 -1 2 -33 5 -70 8 -48 3 -73 9 -81 20 -14 20 -35 10 -26
-13 5 -12 2 -15 -9 -11 -9 4 -21 1 -27 -5 -8 -8 -17 -5 -34 11 -30 28 -53 28
-72 -2 -11 -16 -22 -22 -35 -19 -12 3 -20 0 -20 -7 0 -10 -3 -10 -14 -1 -12
10 -13 8 -9 -8 8 -33 -24 -26 -42 9 -19 38 -19 38 10 38 33 -1 38 6 30 31 -9
28 -30 26 -57 -4 -16 -18 -25 -22 -34 -14 -25 21 -114 -17 -114 -48 0 -10 -94
-8 -110 2 -7 4 -16 2 -20 -6 -6 -9 -13 -10 -22 -3 -15 11 -18 11 -68 0 -32 -8
-101 -35 -142 -56 -11 -6 -20 -4 -28 5 -7 8 -16 12 -21 9 -5 -3 -9 0 -9 5 0
23 -21 9 -37 -24 -9 -19 -23 -35 -30 -35 -7 0 -13 -4 -13 -10 0 -5 -6 -10 -14
-10 -8 0 -21 -8 -28 -19 -7 -10 -22 -20 -33 -22 -11 -3 -20 -11 -20 -19 0 -8
-8 -22 -17 -31 -10 -9 -18 -21 -18 -28 0 -6 -4 -11 -10 -11 -5 0 -10 -7 -10
-15 0 -8 -4 -15 -9 -15 -5 0 -14 -13 -21 -30 -8 -19 -20 -30 -32 -30 -10 0
-21 -7 -24 -15 -4 -8 -16 -15 -28 -15 -12 0 -29 -8 -37 -17 -9 -10 -25 -25
-37 -35 -19 -15 -20 -15 -27 15 -3 18 -8 48 -10 68 -5 57 -13 73 -44 92 -31
18 -71 19 -83 2 -4 -5 -8 -25 -8 -43 l0 -33 -31 16 c-16 9 -39 25 -50 36 -10
10 -24 19 -31 19 -6 0 -20 7 -30 17 -11 9 -18 11 -18 5 0 -21 -36 -13 -37 8
-1 11 -3 31 -4 45 -1 14 -9 27 -20 30 -23 8 -24 28 -4 45 12 10 13 15 4 21
-10 6 -10 11 2 25 17 21 13 52 -10 73 -25 23 -41 65 -30 82 13 21 11 29 -7 29
-11 0 -14 5 -9 18 4 9 10 26 13 37 2 11 10 26 16 34 8 11 8 15 -1 18 -7 3 -13
16 -13 29 0 14 -6 27 -13 30 -7 2 -14 18 -15 35 -2 19 2 28 8 24 6 -4 10 4 10
19 0 13 5 26 10 28 7 2 7 20 1 51 -4 26 -5 50 0 53 4 2 6 11 3 18 -4 10 2 12
21 8 23 -4 25 -2 21 19 -3 13 -8 45 -11 70 -5 41 -3 48 18 62 19 12 22 21 19
52 -3 26 -1 36 7 31 7 -4 11 0 11 12 0 11 6 22 14 25 10 4 12 0 9 -14 -6 -23
22 -27 31 -4 3 8 1 15 -4 15 -6 0 -10 6 -10 13 0 8 -9 22 -20 32 -27 25 -34
52 -17 70 8 8 17 11 21 8 3 -4 6 -1 6 6 0 9 8 11 21 8 15 -4 23 1 31 19 6 13
17 24 25 24 7 0 13 11 13 26 0 14 -4 23 -9 19 -5 -3 -12 -1 -16 5 -3 5 1 10 9
10 9 0 16 9 16 20 0 11 5 20 10 20 6 0 10 13 10 30 0 16 9 44 20 62 11 18 20
43 20 56 0 12 5 22 10 22 6 0 10 16 10 36 0 19 4 33 9 30 14 -9 42 29 35 47
-4 12 2 20 20 27 20 7 26 17 27 42 1 18 1 36 0 40 0 4 11 16 24 27 14 10 30
33 36 49 6 17 19 32 31 35 11 3 17 10 14 16 -4 5 -1 13 5 17 8 5 8 8 0 14 -9
5 -8 10 4 20 10 8 15 9 15 1 0 -6 5 -11 10 -11 6 0 10 9 10 20 0 12 7 20 18
20 14 0 15 2 2 10 -11 7 -11 10 -2 10 19 0 82 67 82 87 0 14 2 15 9 4 10 -16
31 -6 31 14 0 7 7 15 15 19 8 3 20 17 25 31 6 17 20 27 40 32 18 3 29 11 27
17 -9 22 28 60 52 53 16 -4 21 -1 21 14 0 19 28 59 42 59 5 0 17 8 27 18 39
35 51 43 64 41 26 -3 34 2 47 36 8 19 19 35 24 34 27 -3 57 16 62 38 5 20 12
24 30 20 13 -2 24 -1 24 3 0 3 12 5 28 2 19 -2 35 4 55 22 16 14 34 26 41 26
7 0 29 11 49 24 26 18 38 21 46 13 6 -6 36 -11 66 -11 32 1 55 -3 55 -9 0 -6
6 -3 13 8 13 17 15 17 35 -3 39 -39 112 -23 112 24 0 25 2 26 38 19 20 -4 43
-12 51 -18 11 -9 15 -9 18 0 5 15 32 6 55 -18 11 -11 41 -20 83 -24 42 -5 68
-13 74 -23 5 -8 23 -15 42 -16 36 -1 77 -26 43 -26 -32 0 2 -23 53 -36 45 -11
47 -11 77 18 20 20 27 32 19 35 -7 2 -13 17 -12 31 l1 27 8 -25 c7 -21 8 -18
9 18 1 23 10 61 22 84 l21 41 -21 -6 c-25 -6 -26 1 -6 39 13 26 13 29 -3 36
-16 6 -15 9 7 12 16 2 20 11 25 47 2 20 13 53 25 75 12 21 21 49 21 61 0 13 8
24 19 28 25 8 34 34 19 53 -10 12 -10 14 0 8 7 -4 12 -2 12 5 0 7 3 9 7 6 8
-9 34 13 28 23 -3 5 9 13 26 19 17 6 28 15 25 20 -3 4 8 11 24 14 16 4 44 20
61 37 18 16 35 30 39 30 4 0 25 16 46 35 22 19 48 38 59 41 11 4 23 12 27 18
5 6 8 7 8 1 0 -12 112 -12 148 -1 12 4 22 13 22 20 0 9 16 12 55 10 30 -1 53
2 50 6 -6 9 51 23 83 21 12 -2 25 4 28 12 6 18 32 16 44 -3 7 -11 11 -10 24 3
12 12 23 13 46 7 17 -5 30 -5 30 -2 0 4 18 7 40 7 22 0 40 3 40 7 0 13 35 14
50 2 13 -11 23 -11 54 0 21 7 63 12 93 10 30 -3 62 0 71 6 15 8 14 9 -5 10
-13 0 -23 4 -23 8 0 5 33 9 73 9 87 1 106 5 118 24 5 8 9 10 9 5 0 -5 6 -3 14
3 8 7 37 11 65 10 28 -2 54 0 58 4 10 10 41 8 48 -3z m1242 -292 c-3 -8 -6 -5
-6 6 -1 11 2 17 5 13 3 -3 4 -12 1 -19z m207 -103 c-4 -8 -10 -12 -15 -9 -14
8 -10 24 6 24 9 0 12 -6 9 -15z m1893 -11 c-3 -3 -12 -4 -19 -1 -8 3 -5 6 6 6
11 1 17 -2 13 -5z m-657 -844 c0 -5 -5 -10 -11 -10 -5 0 -7 5 -4 10 3 6 8 10
11 10 2 0 4 -4 4 -10z m-8323 -852 c-3 -8 -6 -5 -6 6 -1 11 2 17 5 13 3 -3 4
-12 1 -19z m-20 -300 c-3 -8 -6 -5 -6 6 -1 11 2 17 5 13 3 -3 4 -12 1 -19z
m8957 -43 c3 -8 1 -15 -4 -15 -6 0 -10 7 -10 15 0 8 2 15 4 15 2 0 6 -7 10
-15z m-8814 -15 c0 -11 -4 -20 -10 -20 -5 0 -10 9 -10 20 0 11 5 20 10 20 6 0
10 -9 10 -20z m-50 -98 c0 -10 -8 -22 -19 -29 -21 -13 -32 -58 -22 -87 5 -12
2 -26 -8 -38 -16 -18 -40 -24 -42 -10 0 4 -2 16 -4 27 -2 10 0 24 5 30 5 6 5
17 0 24 -5 9 0 22 16 38 13 13 24 30 24 38 0 8 7 15 15 15 8 0 15 5 15 11 0 5
5 7 10 4 6 -3 10 -14 10 -23z m8875 -52 c3 -5 1 -10 -4 -10 -6 0 -11 5 -11 10
0 6 2 10 4 10 3 0 8 -4 11 -10z m-8961 -197 c-21 -57 -32 -73 -50 -73 -9 0
-13 14 -12 48 0 26 3 41 5 35 6 -17 23 -17 23 0 0 19 43 63 48 49 2 -7 -4 -33
-14 -59z m1656 -43 c0 -5 -5 -10 -11 -10 -5 0 -7 5 -4 10 3 6 8 10 11 10 2 0
4 -4 4 -10z m6930 -10 c0 -5 -7 -10 -16 -10 -8 0 -12 5 -9 10 3 6 10 10 16 10
5 0 9 -4 9 -10z m-8883 -72 c-3 -8 -6 -5 -6 6 -1 11 2 17 5 13 3 -3 4 -12 1
-19z m8803 6 c0 -8 -4 -12 -10 -9 -5 3 -10 10 -10 16 0 5 5 9 10 9 6 0 10 -7
10 -16z m-2515 -53 c6 -1 6 -4 0 -10 -13 -11 -77 -2 -69 10 3 5 18 7 32 5 15
-2 31 -5 37 -5z m882 -83 c-3 -7 -5 -2 -5 12 0 14 2 19 5 13 2 -7 2 -19 0 -25z
m-3520 -124 c-3 -3 -12 -4 -19 -1 -8 3 -5 6 6 6 11 1 17 -2 13 -5z m3973 -134
c0 -5 -4 -10 -10 -10 -5 0 -10 5 -10 10 0 6 5 10 10 10 6 0 10 -4 10 -10z
m195 -91 c0 -8 8 -17 19 -22 11 -4 16 -13 12 -23 -3 -9 -6 -21 -6 -28 0 -8
-12 -13 -30 -12 -18 1 -30 6 -30 14 0 11 -2 11 -14 0 -7 -7 -26 -23 -41 -36
-26 -22 -26 -24 -10 -42 13 -14 26 -18 50 -14 22 3 38 0 48 -10 8 -8 16 -13
19 -11 2 2 3 -8 2 -22 0 -15 -6 -29 -12 -31 -7 -2 -12 -8 -12 -14 0 -14 -27
-38 -43 -38 -8 0 -20 -7 -27 -15 -7 -8 -19 -15 -26 -15 -20 0 -17 -17 4 -29
14 -8 14 -11 2 -12 -8 -1 -20 -1 -26 0 -6 1 -17 -12 -24 -28 -11 -26 -69 -62
-70 -43 0 4 -5 -1 -11 -11 -8 -14 -21 -17 -55 -16 -26 2 -44 8 -44 15 0 22
-27 23 -39 0 -7 -12 -11 -26 -10 -32 3 -20 -2 -28 -10 -15 -5 7 -29 16 -55 18
-43 5 -46 4 -46 -17 0 -19 -2 -20 -15 -10 -9 7 -18 10 -22 6 -3 -3 -1 -6 6 -6
7 0 10 -4 7 -9 -10 -16 -56 2 -82 33 -15 17 -32 31 -38 32 -6 0 -19 2 -30 2
-12 1 -16 7 -12 17 6 18 -2 45 -15 45 -5 0 -22 -14 -38 -31 -22 -23 -35 -29
-50 -24 -17 5 -21 15 -21 51 0 28 -4 43 -10 39 -6 -3 -17 0 -25 9 -20 19 -19
22 5 22 11 0 20 -4 20 -8 0 -13 24 -9 64 12 52 26 138 25 162 -1 20 -22 84
-27 84 -6 1 7 7 4 15 -7 11 -14 11 -22 2 -37 -9 -14 -7 -22 7 -38 22 -25 56
-28 56 -5 0 8 4 13 9 9 18 -11 20 12 5 81 -17 82 -16 77 -5 69 5 -3 11 9 13
27 3 28 7 33 26 30 17 -1 25 4 29 18 4 14 13 20 32 19 14 -1 32 0 40 2 7 2 15
-5 17 -15 4 -27 30 -50 48 -43 19 7 21 38 5 54 -16 16 -3 76 21 98 11 10 20
26 20 37 0 22 35 25 43 4 4 -10 15 -13 34 -10 52 9 62 14 56 31 -4 11 -2 14 8
11 8 -3 14 -11 14 -19z m-5490 -19 c3 -6 -1 -7 -9 -4 -18 7 -21 14 -7 14 6 0
13 -4 16 -10z m5585 -33 c0 -12 -39 -37 -58 -37 -9 0 41 49 51 49 4 1 7 -5 7
-12z m-3720 -57 c0 -5 -5 -10 -11 -10 -5 0 -7 5 -4 10 3 6 8 10 11 10 2 0 4
-4 4 -10z m-1997 -15 c-3 -9 -8 -14 -10 -11 -3 3 -2 9 2 15 9 16 15 13 8 -4z
m3650 -9 c13 14 47 -8 47 -30 0 -37 24 -51 61 -36 22 10 33 10 42 1 20 -20 47
-13 47 13 0 22 16 36 41 36 6 0 7 -9 4 -20 -5 -16 -2 -20 19 -20 17 0 26 -6
26 -15 0 -21 27 -30 45 -15 8 7 15 24 15 39 0 18 3 22 9 12 6 -10 10 -10 16
-1 9 15 65 -37 65 -61 0 -28 18 -32 41 -10 17 15 24 17 34 8 8 -7 10 -16 4
-21 -16 -17 -10 -54 10 -61 30 -9 35 -37 11 -55 -11 -9 -22 -28 -23 -43 -1
-15 -8 -32 -16 -36 -8 -5 -12 -18 -8 -30 6 -24 -9 -27 -35 -7 -24 18 -23 25 2
19 18 -5 20 0 20 35 0 38 -11 52 -41 52 -14 0 -11 -27 4 -34 10 -5 10 -7 0
-12 -7 -3 -13 -18 -13 -32 l-1 -27 -13 31 c-8 17 -29 39 -47 48 -36 18 -34 19
-43 -12 -5 -15 -3 -24 8 -28 33 -13 13 -108 -28 -136 -13 -9 -28 1 -20 13 4 7
-9 9 -32 7 -30 -2 -39 -7 -38 -20 1 -10 -5 -18 -13 -18 -8 0 -11 -4 -8 -10 4
-6 -5 -10 -19 -10 -16 0 -26 6 -26 15 0 9 6 12 15 9 9 -4 15 0 15 9 0 8 6 18
13 20 7 4 6 6 -5 6 -9 1 -18 6 -20 13 -3 8 -13 7 -36 -4 -22 -12 -32 -13 -36
-4 -2 6 -5 1 -5 -11 -1 -13 -7 -23 -16 -23 -18 0 -20 -17 -2 -23 6 -2 9 -7 5
-11 -3 -4 -18 0 -32 9 -21 14 -29 15 -40 5 -8 -6 -12 -18 -9 -26 3 -8 0 -14
-6 -14 -6 0 -11 8 -11 18 0 9 -5 24 -10 32 -8 12 -13 11 -33 -8 -23 -22 -24
-22 -41 -3 -12 13 -15 27 -10 46 6 24 4 26 -17 23 -16 -2 -24 -10 -24 -23 0
-26 -33 -32 -49 -9 -15 20 -46 13 -46 -11 0 -8 -7 -15 -15 -15 -9 0 -27 -7
-41 -17 -24 -15 -27 -15 -52 4 -31 23 -41 53 -18 53 19 0 19 1 6 36 -8 21 -8
29 2 36 8 5 2 6 -14 2 -16 -3 -28 -2 -28 4 0 5 16 13 35 16 19 4 35 11 35 16
0 6 14 10 30 10 29 0 30 2 30 42 0 38 -1 40 -17 26 -20 -17 -54 -32 -65 -30
-5 1 -8 -4 -8 -11 0 -8 -9 -22 -20 -32 -17 -15 -20 -16 -20 -3 0 15 -18 28
-48 34 -20 4 -22 8 -11 24 8 13 10 13 19 0 9 -13 10 -13 10 0 0 8 12 24 27 35
39 29 53 45 53 59 0 6 10 12 21 13 12 1 29 9 38 17 10 9 26 16 37 17 10 0 13
3 7 6 -7 2 -13 9 -13 15 0 6 7 8 15 5 8 -4 17 -2 20 3 4 6 13 7 23 1 25 -13
60 4 67 32 7 28 44 48 73 41 12 -4 22 0 25 11 5 12 11 14 26 6 10 -6 21 -8 24
-5z m-2033 -86 c0 -5 -2 -10 -4 -10 -3 0 -8 5 -11 10 -3 6 -1 10 4 10 6 0 11
-4 11 -10z m-20 -20 c13 -9 13 -10 0 -11 -8 -1 -18 -1 -22 0 -5 0 -8 -4 -8
-10 0 -6 8 -8 18 -5 25 8 46 -33 26 -52 -8 -7 -14 -8 -14 -3 0 6 -11 13 -24
17 -30 7 -41 50 -17 64 20 12 23 12 41 0z m2690 -3 c0 -7 7 -23 16 -36 15 -21
18 -22 26 -7 7 13 13 14 23 6 10 -8 16 -7 24 7 9 17 11 17 27 1 19 -18 10 -42
-13 -34 -8 3 -24 -1 -36 -9 -12 -8 -17 -15 -13 -15 5 0 6 -3 3 -7 -4 -3 -18 6
-32 21 -15 16 -32 25 -40 22 -18 -6 -45 3 -45 15 0 5 6 9 14 9 8 0 18 9 21 20
7 22 25 27 25 7z m480 -86 c0 -6 -4 -13 -10 -16 -5 -3 -10 1 -10 9 0 9 5 16
10 16 6 0 10 -4 10 -9z m-249 -28 c28 -14 31 -18 14 -21 -10 -3 -21 1 -23 7
-6 18 -19 13 -25 -9 -6 -24 -42 -27 -63 -6 -20 20 -18 29 6 23 10 -3 24 1 31
9 15 18 19 18 60 -3z m185 -12 c17 -12 19 -18 10 -37 -6 -13 -14 -24 -19 -24
-8 0 -31 -50 -29 -62 1 -4 -7 -6 -18 -5 -10 1 -18 6 -17 11 1 6 -8 12 -20 14
-23 3 -34 42 -13 42 5 0 13 12 16 28 14 56 41 66 90 33z m-3126 -1 c13 -9 12
-12 -4 -21 -17 -11 -16 -13 14 -25 44 -19 64 -18 56 2 -5 12 -2 15 10 10 8 -3
21 -6 28 -6 14 0 16 -97 2 -118 -4 -7 -19 -18 -33 -23 -17 -6 -23 -14 -19 -25
9 -23 -15 -56 -31 -42 -19 15 -16 0 7 -37 13 -21 36 -38 65 -49 44 -17 47 -22
48 -76 0 -14 5 -28 10 -31 6 -4 0 -17 -12 -30 -25 -27 -27 -45 -5 -53 25 -10
49 -7 82 10 24 11 36 13 52 4 11 -6 20 -15 20 -20 0 -6 11 -10 25 -10 14 0 25
-6 25 -13 0 -9 10 -12 30 -9 17 2 37 -2 46 -9 9 -8 33 -15 53 -16 21 -1 42
-10 51 -21 10 -12 25 -17 44 -15 38 5 59 -13 45 -39 -17 -32 4 -71 34 -62 32
9 47 24 47 44 0 10 9 20 21 23 28 8 69 -9 69 -28 0 -8 11 -17 24 -21 17 -4 33
-23 52 -61 l27 -55 41 6 c27 4 49 16 66 35 14 16 33 31 43 34 9 4 17 13 17 22
0 8 7 15 15 15 8 0 15 -4 15 -10 0 -5 7 -7 15 -4 9 4 15 0 15 -9 0 -20 27 -29
34 -11 3 8 19 14 37 14 25 0 33 -6 42 -30 16 -41 42 -38 65 6 l19 36 21 -27
c23 -29 28 -51 13 -57 -5 -1 -11 -17 -15 -33 -6 -26 -3 -33 24 -49 33 -19 60
-16 60 7 0 24 60 69 85 65 24 -5 53 26 35 37 -6 3 -10 11 -10 17 0 7 6 6 15
-2 8 -7 15 -19 15 -26 0 -8 4 -14 9 -14 5 0 7 -9 4 -20 -3 -11 0 -20 6 -20 6
0 11 3 11 8 0 4 14 8 30 9 17 1 44 12 61 24 32 22 59 20 59 -6 0 -17 16 -20
26 -4 3 6 0 15 -7 20 -9 6 3 9 34 9 31 0 53 -6 65 -17 10 -10 33 -23 51 -30
30 -11 37 -10 59 7 13 11 37 20 51 20 14 0 38 11 53 25 15 14 30 25 34 25 3 0
20 -12 37 -26 25 -21 33 -23 41 -12 16 19 54 10 72 -18 19 -29 44 -32 44 -5 0
11 9 23 20 26 11 3 20 15 20 25 0 28 33 18 49 -15 14 -29 14 -29 22 -6 5 12
13 19 19 16 5 -3 10 -2 10 4 0 6 11 6 31 1 33 -10 49 -6 49 11 0 17 26 38 37
31 6 -4 13 -17 17 -29 8 -25 43 -31 52 -9 4 10 15 11 46 6 23 -5 46 -4 52 1
29 24 88 59 101 59 7 0 15 5 17 12 3 8 12 5 28 -10 16 -15 30 -20 48 -15 15 3
27 1 33 -8 7 -12 9 -12 9 1 0 10 5 8 15 -7 11 -15 23 -20 46 -17 29 4 79 44
79 64 0 9 18 16 62 24 40 7 66 24 73 47 5 14 10 18 17 11 6 -6 17 -8 25 -5 8
3 19 0 23 -7 5 -8 16 -15 25 -16 9 -1 25 -10 34 -18 10 -9 23 -16 29 -16 15 0
28 43 13 48 -6 2 -11 12 -11 23 0 10 -5 19 -11 19 -24 0 4 18 38 25 27 5 33 9
22 16 -13 8 -6 13 14 10 4 0 7 4 7 9 0 6 6 10 14 10 21 0 48 30 42 46 -3 8 -2
13 2 13 27 -4 42 3 42 21 0 11 -6 20 -12 20 -16 1 32 29 50 30 7 0 32 19 54
41 23 23 44 36 46 30 7 -20 22 -11 22 13 0 35 33 43 73 17 18 -11 28 -21 23
-21 -6 0 -1 -7 10 -15 18 -15 18 -15 -7 -9 -24 5 -27 2 -31 -26 -3 -19 0 -34
9 -38 10 -6 9 -13 -7 -30 -12 -12 -27 -22 -35 -22 -8 0 -15 -8 -15 -19 0 -10
-3 -33 -6 -50 -5 -24 -3 -31 9 -31 9 0 17 -10 19 -22 2 -14 16 -29 35 -39 18
-9 39 -22 47 -28 7 -6 21 -9 30 -5 11 4 16 1 16 -10 0 -9 7 -27 15 -40 15 -22
20 -23 160 -24 80 0 147 4 150 8 5 8 78 5 123 -5 12 -3 22 -1 22 5 0 5 7 10
15 10 8 0 15 -4 15 -10 0 -14 104 -12 119 3 11 10 13 10 7 0 -9 -16 40 -18 49
-3 7 11 53 3 73 -13 11 -8 16 -3 14 14 -1 4 9 9 22 11 19 4 25 0 29 -19 3 -17
0 -23 -14 -23 -21 0 -27 -30 -6 -30 7 0 4 -7 -7 -15 -11 -8 -16 -18 -12 -22 4
-4 11 -1 16 7 15 24 21 5 8 -22 -8 -13 -19 -23 -26 -20 -11 3 -16 -9 -13 -35
1 -6 -14 -21 -33 -32 -19 -12 -41 -32 -50 -46 -9 -13 -31 -28 -50 -34 -19 -5
-41 -14 -48 -20 -59 -49 -79 -62 -86 -57 -5 3 -15 -6 -22 -19 -7 -14 -22 -25
-32 -25 -10 0 -18 -3 -18 -8 0 -4 -19 -13 -42 -20 -24 -7 -51 -23 -60 -35 -11
-13 -21 -18 -25 -12 -11 14 -72 13 -77 -1 -3 -7 3 -10 15 -7 10 3 19 0 19 -6
0 -15 -47 -14 -53 2 -3 7 -6 5 -6 -5 -1 -10 -6 -18 -12 -18 -6 0 -9 9 -6 20 3
11 1 20 -4 20 -5 0 -9 -9 -9 -20 0 -13 -5 -18 -15 -14 -8 4 -21 1 -29 -5 -7
-6 -21 -9 -30 -5 -32 12 -48 -15 -41 -70 4 -28 11 -55 17 -61 6 -6 7 -4 3 6
-8 20 17 31 51 23 14 -4 24 -2 24 5 0 7 8 7 26 1 14 -6 31 -7 36 -4 6 4 30 9
54 11 35 3 45 0 59 -19 13 -20 17 -21 25 -8 5 8 10 21 10 28 0 9 10 12 28 10
19 -2 26 -8 24 -20 -5 -31 -70 -85 -94 -80 -5 1 -8 -5 -8 -13 0 -8 -19 -23
-42 -34 -37 -17 -44 -17 -51 -5 -5 9 -6 21 -4 28 6 14 -11 36 -26 36 -5 0 -6
-7 -3 -16 4 -11 -1 -22 -14 -31 -14 -10 -19 -21 -15 -34 6 -18 3 -19 -34 -13
-34 5 -41 4 -41 -10 0 -9 5 -16 11 -16 5 0 7 -5 3 -12 -6 -9 -9 -9 -12 0 -7
21 -22 13 -22 -13 0 -14 -8 -29 -20 -35 -25 -13 -40 -5 -40 21 0 10 -7 19 -15
19 -18 0 -17 -50 0 -62 20 -14 -5 -20 -35 -8 -39 16 -80 -7 -81 -48 l-1 -27
-8 25 c-8 24 -8 24 -9 3 -1 -17 -7 -23 -26 -23 -18 0 -23 4 -19 15 8 20 -20
20 -36 0 -7 -9 -21 -13 -30 -10 -10 3 -24 -1 -32 -8 -22 -22 -57 -30 -73 -17
-12 10 -15 9 -15 -5 0 -12 -6 -16 -20 -12 -11 3 -20 2 -20 -2 0 -4 -23 -7 -50
-6 -39 0 -51 -4 -56 -17 -3 -10 -11 -19 -17 -19 -7 -1 -19 -2 -27 -3 -8 0 -25
5 -37 13 -17 9 -23 10 -23 2 0 -7 -4 -9 -10 -6 -16 10 -50 -14 -50 -35 0 -26
-26 -26 -40 0 -6 11 -19 20 -30 20 -10 0 -21 6 -23 13 -4 9 -8 8 -16 -3 -6 -8
-11 -11 -11 -7 0 4 -9 3 -20 -3 -11 -6 -17 -16 -14 -25 5 -11 -1 -15 -19 -15
-14 0 -28 6 -30 13 -3 7 -6 5 -6 -5 -1 -10 -5 -18 -11 -18 -5 0 -10 8 -10 18
0 14 -2 15 -10 2 -9 -13 -10 -13 -10 0 0 13 -1 13 -10 0 -8 -12 -10 -10 -11
10 l-1 25 -8 -25 c-4 -14 -8 -19 -9 -12 -1 15 -48 16 -53 0 -2 -6 -33 -13 -72
-16 -40 -2 -66 0 -63 5 3 5 -7 7 -24 5 -28 -4 -42 -22 -16 -22 8 0 9 -3 1 -8
-6 -4 -16 -16 -22 -27 -11 -19 -11 -19 -13 5 -1 14 -1 30 0 37 3 21 -34 6 -37
-15 -2 -13 -13 -24 -28 -28 -13 -3 -24 -10 -24 -16 0 -5 -4 -6 -10 -3 -5 3
-11 -4 -11 -17 -1 -19 -2 -18 -8 6 -6 28 -7 29 -23 12 -13 -12 -18 -14 -18 -4
0 9 -3 9 -8 2 -7 -11 -24 -11 -54 1 -11 5 -26 -2 -44 -20 -22 -22 -28 -24 -37
-11 -16 20 -75 27 -63 7 6 -9 -41 -19 -164 -34 -17 -3 -28 -12 -35 -33 -9 -28
-13 -30 -55 -26 -25 2 -50 8 -57 14 -14 11 -53 2 -53 -13 0 -6 -4 -8 -9 -4 -5
3 -12 1 -16 -5 -8 -13 -52 -13 -60 0 -10 16 -23 12 -30 -10 -3 -11 -17 -23
-31 -26 -13 -3 -24 -11 -24 -16 0 -6 -17 -8 -45 -4 -34 6 -45 4 -45 -6 0 -11
-2 -10 -9 0 -6 11 -10 10 -15 -3 -4 -11 -13 -15 -26 -12 -11 3 -20 1 -20 -3 0
-5 -17 -17 -37 -27 -27 -12 -38 -14 -41 -5 -6 20 -29 14 -35 -9 -5 -19 -11
-21 -52 -17 -25 3 -48 1 -51 -3 -3 -5 2 -9 11 -9 13 0 14 -4 5 -20 -6 -11 -17
-20 -25 -20 -8 0 -15 -9 -15 -20 0 -11 -4 -20 -9 -20 -6 0 -11 -19 -13 -42 -2
-35 -7 -43 -28 -50 -16 -5 -10 -5 16 -2 25 3 45 1 48 -5 4 -7 1 -8 -8 -5 -20
8 -20 -3 -2 -22 19 -18 41 -18 72 3 15 9 43 16 65 15 39 -2 78 11 90 30 3 5
37 11 75 13 113 5 194 17 194 28 0 5 16 7 39 4 22 -2 43 -1 48 4 5 5 39 11 74
12 48 2 67 -1 76 -12 10 -14 13 -14 30 2 11 9 27 17 36 17 9 0 17 5 17 10 0 6
10 10 23 9 12 0 16 -3 9 -6 -6 -2 -9 -9 -6 -15 3 -5 12 -1 19 9 8 11 32 25 54
32 23 6 41 16 41 21 0 4 13 6 29 4 18 -3 35 1 45 11 8 9 29 15 48 14 67 -4 98
1 98 14 0 27 41 35 79 16 35 -17 36 -17 43 4 4 16 6 17 7 5 1 -10 10 -22 22
-28 17 -10 21 -8 26 8 3 14 11 18 24 15 10 -3 19 0 19 6 0 6 -7 11 -16 11 -15
0 -15 2 -2 22 17 25 43 38 36 17 -3 -8 -11 -13 -17 -12 -16 4 -14 -12 4 -27
13 -10 15 -9 15 9 0 24 8 26 34 6 18 -14 18 -26 1 -67 -6 -15 -2 -18 23 -18
29 0 30 1 25 39 l-5 40 34 -5 c25 -3 42 2 58 16 26 22 60 27 61 8 0 -10 2 -10
6 -1 4 10 10 10 26 -2 12 -8 32 -15 44 -15 14 0 23 -6 23 -15 0 -18 16 -20 26
-3 4 6 -3 19 -15 29 l-23 18 35 -1 c25 -1 34 -5 30 -15 -3 -8 2 -13 16 -13 30
0 26 -29 -6 -41 -21 -8 -24 -12 -13 -19 9 -6 0 -8 -25 -5 -28 2 -53 -4 -80
-20 -28 -16 -59 -23 -105 -24 -102 -4 -145 -14 -134 -32 3 -6 -5 -7 -21 -3
-21 5 -27 2 -31 -13 -4 -13 -21 -25 -46 -34 -22 -7 -42 -19 -45 -26 -3 -7 -9
-10 -14 -7 -5 3 -9 1 -9 -5 0 -6 -11 -13 -25 -17 -14 -3 -25 -11 -25 -16 0 -6
-12 -8 -28 -5 -21 4 -33 0 -46 -14 -9 -11 -21 -17 -27 -14 -5 4 -8 1 -7 -7 3
-13 -18 -14 -70 -2 -14 3 -25 -1 -28 -11 -3 -8 -10 -12 -15 -10 -4 3 -18 -4
-29 -15 -11 -11 -25 -18 -30 -15 -10 6 -14 -6 -11 -37 1 -10 -3 -18 -8 -18 -6
0 -11 5 -11 11 0 5 -4 7 -10 4 -5 -3 -10 0 -10 7 0 7 -7 0 -16 -17 -8 -16 -22
-37 -30 -46 -8 -8 -14 -21 -14 -27 0 -15 -31 -31 -49 -24 -11 4 -13 -2 -8 -28
6 -29 5 -32 -13 -27 -10 3 -24 -1 -31 -9 -6 -8 -20 -14 -30 -14 -11 0 -19 -7
-20 -17 0 -11 -20 -28 -52 -44 -54 -27 -62 -37 -72 -81 -3 -19 -10 -26 -20
-22 -10 4 -15 0 -15 -15 0 -16 -6 -21 -24 -21 -18 0 -25 -6 -28 -22 -2 -14
-15 -29 -33 -37 l-29 -14 24 -9 25 -9 -30 -14 c-17 -7 -39 -17 -50 -21 -18 -7
-16 -8 10 -13 29 -5 29 -5 -10 -10 -31 -5 -40 -11 -45 -30 -5 -21 -7 -22 -19
-8 -11 14 -15 14 -27 2 -23 -22 -16 -34 16 -29 18 3 30 1 30 -6 0 -6 -17 -10
-42 -8 -23 1 -43 -2 -45 -7 -9 -26 -24 -39 -45 -40 -33 -2 -68 -15 -68 -25 0
-11 -40 -24 -65 -22 -17 2 -16 -1 8 -23 16 -14 25 -30 21 -36 -4 -7 -10 -7
-16 -1 -6 6 -24 6 -45 2 -35 -8 -56 -20 -35 -20 7 0 12 -6 12 -14 0 -8 7 -16
14 -19 13 -5 13 -11 -1 -39 -25 -49 -40 -61 -68 -54 -20 5 -25 3 -25 -13 0
-11 6 -22 13 -25 6 -3 1 -5 -13 -4 -14 2 -31 -2 -39 -7 -10 -5 -16 -4 -19 4
-3 8 -8 6 -18 -6 -13 -17 -13 -17 -14 0 0 9 -4 17 -10 17 -15 0 -12 38 3 43 9
3 9 8 -3 21 -13 17 -14 17 -22 -1 -5 -11 -6 -1 -3 25 5 43 -3 53 -24 28 -7 -8
-21 -12 -31 -9 -12 3 -22 -1 -26 -11 -9 -25 -22 -19 -26 12 -2 15 -7 26 -13
25 -41 -6 -52 -9 -63 -21 -8 -7 -17 -10 -22 -7 -5 3 -11 -3 -13 -12 -3 -13 -5
-10 -6 7 -1 20 -3 22 -11 10 -7 -11 -10 -11 -10 -2 0 7 -4 10 -10 7 -5 -3 -10
-2 -10 3 0 12 -59 13 -81 2 -22 -13 -71 10 -64 29 4 10 -1 9 -15 -4 -17 -15
-24 -16 -45 -7 -14 6 -25 16 -25 22 0 6 -5 8 -11 4 -6 -3 -21 -2 -32 4 -12 5
-37 15 -54 22 -18 7 -33 18 -33 24 0 6 -5 4 -10 -4 -8 -12 -10 -12 -10 5 -1
18 -2 17 -11 -4 -7 -18 -14 -22 -32 -16 -12 4 -37 8 -56 9 -19 0 -36 7 -39 14
-2 6 -8 10 -13 6 -5 -3 -9 0 -9 5 0 6 -13 11 -29 11 -21 0 -28 5 -27 18 0 10
-5 16 -13 14 -27 -6 -60 8 -66 28 -3 11 -13 20 -21 20 -8 0 -14 7 -14 16 0 11
-5 14 -16 10 -18 -7 -74 14 -74 26 0 5 -15 8 -32 8 -23 0 -29 3 -19 9 9 6 11
16 6 27 -7 18 -8 18 -15 -1 -8 -17 -9 -18 -9 -2 -1 10 -11 21 -23 26 -13 5
-21 11 -20 15 8 17 -34 56 -60 56 -16 0 -28 4 -28 8 0 4 -14 13 -31 19 -20 8
-28 16 -23 24 4 8 3 9 -4 5 -14 -8 -36 40 -28 60 5 13 -50 64 -68 64 -6 0 -5
4 3 9 16 10 6 31 -15 31 -8 0 -14 10 -14 24 0 15 -7 26 -20 29 -13 3 -18 11
-14 20 5 15 -46 74 -84 97 -14 8 -15 11 -3 19 8 5 9 11 3 15 -6 3 -13 29 -17
56 -7 52 -17 65 -50 65 -16 0 -20 7 -21 33 0 22 -8 40 -21 50 -21 18 -37 49
-35 68 1 5 -7 20 -18 32 -11 12 -20 26 -20 31 0 5 -9 13 -20 16 -11 3 -20 11
-20 17 0 5 -7 7 -15 4 -11 -4 -19 3 -25 20 -13 33 -13 34 6 34 14 0 14 1 0 16
-19 19 -20 26 -4 42 9 9 9 12 -1 12 -8 0 -11 6 -7 16 3 8 2 12 -4 9 -6 -3 -10
0 -10 8 0 8 -7 18 -16 21 -10 4 -14 14 -11 25 3 11 -4 29 -15 41 -17 18 -18
26 -9 52 6 17 11 35 11 39 0 12 -23 7 -32 -6 -4 -5 -8 20 -8 58 0 51 -3 67
-14 67 -9 0 -16 12 -18 32 -2 27 -9 34 -35 42 -18 5 -33 15 -33 21 0 7 -7 15
-15 19 -8 3 -15 16 -15 30 0 13 -7 27 -17 30 -12 5 -13 10 -5 18 5 5 8 25 5
43 -4 27 -1 35 17 45 18 10 25 8 42 -7 14 -12 36 -18 72 -18 42 0 51 -3 48
-17 -3 -17 1 -17 80 -2 30 5 39 3 44 -10 7 -18 39 -22 49 -6 3 6 17 7 29 4 20
-5 24 -1 29 32 5 27 2 43 -8 54 -17 19 -20 50 -5 50 6 0 10 5 10 11 0 5 -4 8
-9 4 -5 -3 -12 3 -14 12 -3 11 -5 7 -6 -10 -1 -16 -5 -26 -11 -22 -6 4 -8 10
-5 15 7 12 -35 61 -47 54 -4 -3 -8 1 -8 8 0 9 -3 9 -10 -2 -8 -12 -10 -11 -10
6 0 15 -8 24 -25 28 -16 4 -25 13 -25 26 0 11 -4 20 -8 20 -5 0 -15 12 -23 28
-8 15 -24 35 -36 45 -13 10 -23 25 -23 33 0 11 -6 13 -22 8 -13 -3 -20 -3 -16
1 4 4 -4 16 -17 27 -14 11 -25 28 -25 37 0 13 -10 20 -30 25 -16 3 -30 11 -30
19 0 7 -14 21 -31 31 -18 11 -28 23 -25 32 3 8 0 14 -6 14 -9 0 -9 3 0 12 8 8
15 8 27 -2 13 -10 15 -9 15 9 0 23 20 27 49 10 14 -9 25 -8 51 4 18 9 36 14
41 11 5 -3 9 0 9 5 0 6 8 11 18 11 14 0 15 2 2 10 -12 8 -12 10 3 16 9 3 28 3
42 0 15 -4 25 -2 25 5 0 6 8 9 17 7 10 -2 18 -12 18 -22 0 -11 6 -21 13 -23 7
-3 12 4 12 16 0 12 4 21 10 21 5 0 8 -10 6 -22 -2 -19 -10 -23 -37 -23 -27 0
-35 -4 -37 -22 -2 -13 5 -27 20 -37 32 -23 38 -20 38 15 0 16 4 28 9 25 5 -3
14 1 21 9 7 8 22 15 34 15 24 0 56 32 56 56 0 9 14 21 30 27 31 12 41 37 15
37 -23 0 -18 36 8 47 14 7 27 27 36 57 9 33 18 46 27 42 9 -3 22 10 35 37 12
23 31 51 44 62 22 20 25 25 25 46 0 5 5 7 10 4 6 -3 10 1 10 9 0 9 7 16 16 16
14 0 16 7 11 40 -3 22 -1 40 3 40 23 0 40 -14 40 -33 0 -18 2 -18 23 6 24 29
50 36 41 12 -4 -10 0 -15 14 -15 15 0 19 -5 15 -20 -3 -11 0 -20 6 -20 6 0 11
6 11 13 0 7 7 4 15 -7 8 -11 15 -18 16 -15 8 61 7 94 -2 105 -6 7 -8 18 -4 23
3 7 0 8 -9 5 -18 -7 -21 12 -7 35 6 10 3 20 -12 32 l-22 18 23 21 c12 11 27
18 32 15 12 -7 30 36 30 71 0 26 7 29 30 14z m3194 -24 c-3 -7 2 -16 11 -20 9
-3 13 -10 10 -16 -4 -6 -15 -4 -31 6 -23 16 -23 17 -7 30 23 17 23 17 17 0z
m-1387 -222 c-3 -3 -12 -4 -19 -1 -8 3 -5 6 6 6 11 1 17 -2 13 -5z m-67 -38
c0 -2 -7 -9 -15 -16 -12 -10 -15 -10 -15 4 0 9 7 16 15 16 8 0 15 -2 15 -4z
m444 -460 c9 3 16 1 16 -5 0 -6 -13 -11 -30 -11 -21 0 -30 5 -30 16 0 13 3 14
14 5 7 -6 21 -9 30 -5z m-254 -6 c0 -5 -7 -7 -15 -4 -8 4 -15 8 -15 10 0 2 7
4 15 4 8 0 15 -4 15 -10z m-40 -51 c0 -5 -7 -6 -15 -3 -8 4 -15 13 -15 21 0
13 3 13 15 3 8 -7 15 -16 15 -21z m2260 -649 c0 -5 -4 -10 -10 -10 -5 0 -10 5
-10 10 0 6 5 10 10 10 6 0 10 -4 10 -10z m-345 -130 c3 -5 -1 -10 -10 -10 -9
0 -13 5 -10 10 3 6 8 10 10 10 2 0 7 -4 10 -10z m-4625 -10 c0 -5 -4 -10 -10
-10 -5 0 -10 5 -10 10 0 6 5 10 10 10 6 0 10 -4 10 -10z m2835 -400 c3 -5 1
-10 -4 -10 -6 0 -11 5 -11 10 0 6 2 10 4 10 3 0 8 -4 11 -10z m-175 -20 c0 -5
-7 -10 -16 -10 -8 0 -12 5 -9 10 3 6 10 10 16 10 5 0 9 -4 9 -10z m1360 -22
c0 -9 3 -9 11 -1 8 8 20 8 41 1 24 -8 32 -8 39 3 6 10 9 8 9 -8 0 -19 -5 -23
-34 -23 -41 0 -86 15 -86 30 0 5 5 10 10 10 6 0 10 -5 10 -12z m930 -19 c0 -6
9 -9 20 -6 18 4 20 0 20 -34 0 -37 -2 -39 -20 -29 -11 6 -20 15 -20 20 0 24
-20 7 -21 -17 0 -16 -3 -22 -6 -15 -2 6 -13 12 -24 12 -28 0 -24 35 6 48 14 6
25 16 25 22 0 5 5 10 10 10 6 0 10 -5 10 -11z m-173 -140 c5 -19 8 -20 17 -7
13 17 54 29 61 18 3 -5 -4 -12 -16 -15 -19 -6 -19 -7 -2 -20 15 -11 16 -16 4
-38 -17 -31 -70 -42 -88 -18 -13 17 -14 16 -16 -44 -2 -34 -5 -40 -24 -41 -18
-1 -23 4 -23 22 0 12 5 26 10 29 15 10 12 35 -5 35 -8 0 -15 7 -15 15 0 14 61
32 77 22 5 -3 9 3 9 14 0 12 -7 19 -18 19 -18 0 -24 11 -11 23 13 14 35 6 40
-14z m-120 -84 c-4 -8 -12 -15 -19 -14 -10 0 -10 2 0 6 6 2 12 12 12 21 0 8 3
13 6 9 4 -3 4 -13 1 -22z m-3 -27 c13 13 25 -23 20 -58 -7 -43 -10 -46 -28
-31 -11 9 -23 5 -59 -19 -25 -16 -51 -30 -58 -30 -10 -1 -9 -5 4 -14 21 -16
22 -26 3 -26 -9 0 -16 -17 -21 -50 -7 -50 -7 -50 -41 -48 -21 1 -34 7 -34 16
0 7 4 11 9 7 5 -3 12 -1 15 4 4 5 2 12 -4 16 -6 4 -8 11 -4 16 3 6 -4 7 -20 3
-19 -4 -26 -2 -26 9 0 14 26 32 43 29 4 -1 7 7 7 19 0 16 4 19 20 14 11 -4 20
-2 20 4 0 6 -4 11 -10 11 -5 0 -10 5 -10 10 0 6 7 10 15 10 8 0 15 5 15 12 0
6 9 1 20 -12 l20 -23 0 32 c0 18 4 30 9 26 5 -3 12 -1 16 5 3 5 -1 10 -9 10
-14 0 -14 3 1 20 10 11 21 20 26 20 5 0 7 -9 4 -20 -3 -11 -1 -20 4 -20 5 0 9
16 9 35 0 32 2 35 19 26 10 -6 21 -7 25 -3z m-55 -172 c9 -10 8 -15 -2 -19
-19 -7 -41 8 -33 22 10 15 21 14 35 -3z m-189 -85 c0 -6 -4 -13 -10 -16 -5 -3
-10 1 -10 9 0 9 5 16 10 16 6 0 10 -4 10 -9z m-8 -68 c-3 -17 -7 -22 -10 -13
-3 8 -9 21 -15 28 -7 9 -4 12 10 12 17 0 19 -5 15 -27z m-44 -42 c-2 -20 -6
-35 -10 -33 -5 1 -8 3 -7 5 0 1 -4 15 -10 30 -13 33 -7 49 15 40 10 -4 14 -17
12 -42z m-61 -40 c-19 -42 -41 -52 -51 -23 -3 9 -9 23 -12 30 -4 8 3 12 20 12
15 0 29 7 33 16 4 12 8 13 13 3 5 -7 3 -24 -3 -38z m-62 -31 c3 -5 -3 -10 -15
-10 -12 0 -18 5 -15 10 3 6 10 10 15 10 5 0 12 -4 15 -10z m-18 -52 c-3 -7 -5
-2 -5 12 0 14 2 19 5 13 2 -7 2 -19 0 -25z m20 10 c-3 -8 -6 -5 -6 6 -1 11 2
17 5 13 3 -3 4 -12 1 -19z m-3117 -404 c0 -2 -7 -4 -15 -4 -8 0 -15 4 -15 10
0 5 7 7 15 4 8 -4 15 -8 15 -10z m340 -74 c0 -5 -5 -10 -11 -10 -5 0 -7 5 -4
10 3 6 8 10 11 10 2 0 4 -4 4 -10z m810 -10 c0 -5 -7 -10 -16 -10 -8 0 -12 5
-9 10 3 6 10 10 16 10 5 0 9 -4 9 -10z"/>
<path d="M6548 10353 c7 -3 16 -2 19 1 4 3 -2 6 -13 5 -11 0 -14 -3 -6 -6z"/>
<path d="M8030 10110 c0 -5 5 -10 11 -10 5 0 7 5 4 10 -3 6 -8 10 -11 10 -2 0
-4 -4 -4 -10z"/>
<path d="M8535 9913 c11 -3 26 -10 33 -16 15 -12 27 -3 17 12 -3 6 -21 10 -38
10 -21 -1 -25 -3 -12 -6z"/>
<path d="M5857 9583 c-15 -14 -6 -41 16 -47 25 -6 49 17 40 40 -5 14 -44 19
-56 7z"/>
<path d="M5060 9390 c0 -5 5 -10 10 -10 6 0 10 5 10 10 0 6 -4 10 -10 10 -5 0
-10 -4 -10 -10z"/>
<path d="M3810 9229 c0 -6 -7 -9 -15 -5 -10 4 -15 -1 -15 -14 0 -28 25 -25 38
5 7 15 8 25 2 25 -6 0 -10 -5 -10 -11z"/>
<path d="M9041 9064 c0 -11 3 -14 6 -6 3 7 2 16 -1 19 -3 4 -6 -2 -5 -13z"/>
<path d="M9038 9011 c-4 -12 -11 -20 -16 -17 -15 9 -22 -35 -9 -53 18 -24 37
-24 37 2 0 18 2 19 10 7 7 -11 10 -6 9 20 0 28 -2 31 -9 15 -6 -17 -8 -14 -11
15 -4 31 -5 32 -11 11z"/>
<path d="M9730 8890 c0 -5 5 -10 10 -10 6 0 10 5 10 10 0 6 -4 10 -10 10 -5 0
-10 -4 -10 -10z"/>
<path d="M9857 8656 c-4 -10 -5 -21 -2 -24 9 -9 17 6 13 25 -3 17 -4 17 -11
-1z"/>
<path d="M3186 8401 c-4 -7 -5 -15 -2 -18 9 -9 19 4 14 18 -4 11 -6 11 -12 0z"/>
<path d="M7100 8005 c0 -18 24 -30 39 -21 16 10 1 36 -20 36 -10 0 -19 -7 -19
-15z"/>
<path d="M9417 7693 c-4 -3 -7 -16 -7 -29 0 -12 -6 -24 -14 -27 -23 -9 -26
-56 -4 -68 30 -16 88 27 60 45 -5 3 -7 18 -4 34 4 28 -18 59 -31 45z"/>
<path d="M7554 7599 c-10 -17 23 -46 38 -31 8 8 8 15 -2 27 -15 18 -26 19 -36
4z"/>
<path d="M7272 7588 c-28 -28 -6 -50 28 -28 13 8 13 11 0 25 -12 12 -18 13
-28 3z"/>
<path d="M9290 7534 c0 -14 4 -23 10 -19 6 3 10 15 10 26 0 10 -4 19 -10 19
-5 0 -10 -12 -10 -26z"/>
<path d="M9130 7478 c0 -19 2 -20 10 -8 13 19 13 30 0 30 -5 0 -10 -10 -10
-22z"/>
<path d="M5247 7422 c-21 -23 -21 -36 -3 -51 19 -16 46 -3 46 24 0 35 -23 49
-43 27z"/>
<path d="M5722 7400 c-12 -20 -2 -60 16 -60 21 0 44 28 40 51 -4 31 -38 37
-56 9z"/>
<path d="M8439 7387 c-19 -14 -38 -64 -20 -53 6 4 11 1 11 -7 0 -19 48 -41 90
-40 23 0 37 -5 42 -16 5 -11 7 -8 7 12 1 15 6 27 12 27 6 0 9 10 7 22 -6 41
-114 81 -149 55z"/>
<path d="M8995 7390 c-3 -5 -1 -10 4 -10 6 0 11 5 11 10 0 6 -2 10 -4 10 -3 0
-8 -4 -11 -10z"/>
<path d="M3967 7354 c-12 -13 -8 -52 7 -57 8 -3 22 1 33 8 14 11 16 18 7 32
-12 19 -36 28 -47 17z"/>
<path d="M3730 7270 c0 -21 25 -44 39 -36 5 4 12 -2 14 -11 4 -15 6 4 7 54 0
4 -13 8 -30 9 -23 1 -30 -3 -30 -16z"/>
<path d="M8540 7240 c-13 -8 -12 -10 3 -10 9 0 17 5 17 10 0 12 -1 12 -20 0z"/>
<path d="M2960 7120 c0 -5 5 -10 10 -10 6 0 10 5 10 10 0 6 -4 10 -10 10 -5 0
-10 -4 -10 -10z"/>
<path d="M4876 7122 c-10 -17 7 -52 25 -52 26 0 34 19 15 38 -10 11 -16 12
-16 4 0 -7 -4 -12 -10 -12 -5 0 -7 7 -4 15 6 16 -1 21 -10 7z"/>
<path d="M3380 7089 c0 -5 -5 -7 -10 -4 -18 11 -23 -25 -5 -45 19 -21 35 -18
53 11 10 16 10 24 1 35 -13 16 -39 19 -39 3z"/>
<path d="M3115 7010 c-3 -5 -2 -10 4 -10 5 0 13 5 16 10 3 6 2 10 -4 10 -5 0
-13 -4 -16 -10z"/>
<path d="M3123 6993 c-22 -8 -14 -20 12 -20 15 0 25 5 25 13 0 14 -14 17 -37
7z"/>
<path d="M4860 6769 c0 -5 5 -7 10 -4 6 3 10 8 10 11 0 2 -4 4 -10 4 -5 0 -10
-5 -10 -11z"/>
<path d="M8721 6764 c0 -11 3 -14 6 -6 3 7 2 16 -1 19 -3 4 -6 -2 -5 -13z"/>
<path d="M6790 6522 c-8 -4 -16 -17 -18 -29 -3 -18 2 -23 17 -23 12 0 21 -4
21 -9 0 -6 12 -6 28 -2 15 4 33 6 40 4 6 -3 12 -2 12 1 0 10 -24 50 -35 58
-12 9 -45 9 -65 0z"/>
<path d="M6975 6500 c-8 -13 4 -32 16 -25 12 8 12 35 0 35 -6 0 -13 -4 -16
-10z"/>
<path d="M4476 6352 c-2 -4 -1 -14 5 -22 7 -12 9 -10 9 8 0 23 -5 28 -14 14z"/>
<path d="M4530 6330 c0 -5 4 -10 9 -10 6 0 13 5 16 10 3 6 -1 10 -9 10 -9 0
-16 -4 -16 -10z"/>
<path d="M4458 6219 c-14 -8 -15 -14 -6 -34 14 -30 31 -37 54 -21 12 9 15 20
10 39 -7 28 -28 34 -58 16z"/>
<path d="M4585 6150 c-3 -5 -1 -10 4 -10 6 0 11 5 11 10 0 6 -2 10 -4 10 -3 0
-8 -4 -11 -10z"/>
<path d="M4754 6134 c-18 -8 -4 -44 17 -44 22 0 31 13 23 34 -6 16 -18 19 -40
10z"/>
<path d="M8155 6110 c3 -5 8 -10 11 -10 2 0 4 5 4 10 0 6 -5 10 -11 10 -5 0
-7 -4 -4 -10z"/>
<path d="M4611 5961 c-10 -7 -11 -13 -2 -30 14 -26 37 -27 50 -3 16 31 -16 53
-48 33z"/>
<path d="M7860 5920 c0 -5 5 -10 10 -10 6 0 10 5 10 10 0 6 -4 10 -10 10 -5 0
-10 -4 -10 -10z"/>
<path d="M4294 5906 c-18 -14 -18 -16 -3 -31 19 -19 54 -13 63 11 13 34 -24
46 -60 20z"/>
<path d="M7553 5873 c-24 -9 -13 -24 15 -21 15 2 26 8 25 13 -2 12 -23 16 -40
8z"/>
<path d="M5004 5845 c-16 -24 -16 -27 0 -43 23 -23 51 -4 51 34 0 38 -28 43
-51 9z"/>
<path d="M5371 5841 c-8 -5 -10 -14 -7 -20 8 -13 46 -15 46 -2 0 16 -25 30
-39 22z"/>
<path d="M7190 5832 c-31 -25 -21 -55 17 -50 32 3 43 37 20 57 -11 9 -19 7
-37 -7z"/>
<path d="M4218 5829 c-22 -12 -23 -52 -3 -69 12 -10 21 -10 45 0 35 15 41 53
11 70 -24 12 -31 12 -53 -1z"/>
<path d="M7363 5825 c-30 -13 -45 -34 -25 -36 4 0 23 -2 42 -4 47 -4 60 4 49
33 -10 25 -21 27 -66 7z"/>
<path d="M6486 5812 c-3 -6 -1 -14 5 -17 14 -9 20 -2 10 14 -6 8 -11 9 -15 3z"/>
<path d="M7050 5726 c0 -10 9 -16 21 -16 24 0 21 23 -4 28 -10 2 -17 -3 -17
-12z"/>
<path d="M9005 5580 c-3 -5 1 -10 10 -10 9 0 13 5 10 10 -3 6 -8 10 -10 10 -2
0 -7 -4 -10 -10z"/>
<path d="M7436 5493 c-11 -12 -6 -33 8 -33 19 0 28 27 11 33 -7 3 -16 3 -19 0z"/>
<path d="M3834 5227 c3 -10 6 -23 6 -28 0 -5 11 -3 25 3 30 14 32 24 5 31 -11
3 -20 0 -20 -6 0 -7 -5 -6 -11 3 -9 12 -10 12 -5 -3z"/>
<path d="M8401 5024 c0 -11 3 -14 6 -6 3 7 2 16 -1 19 -3 4 -6 -2 -5 -13z"/>
<path d="M8160 4999 c0 -5 5 -7 10 -4 6 3 10 8 10 11 0 2 -4 4 -10 4 -5 0 -10
-5 -10 -11z"/>
<path d="M7805 4949 c-10 -15 3 -25 16 -12 7 7 7 13 1 17 -6 3 -14 1 -17 -5z"/>
<path d="M7700 4560 c0 -5 9 -10 21 -10 11 0 17 5 14 10 -3 6 -13 10 -21 10
-8 0 -14 -4 -14 -10z"/>
<path d="M4090 4540 c0 -5 5 -10 10 -10 6 0 10 5 10 10 0 6 -4 10 -10 10 -5 0
-10 -4 -10 -10z"/>
<path d="M5980 4383 c0 -15 -2 -16 -10 -3 -8 13 -10 12 -10 -2 0 -10 7 -18 15
-18 8 0 15 9 15 20 0 11 -2 20 -5 20 -3 0 -5 -8 -5 -17z"/>
<path d="M6006 3373 c-4 -4 -15 -8 -23 -8 -9 0 -18 -6 -20 -13 -3 -7 1 -10 11
-6 10 4 16 1 16 -9 0 -8 -5 -17 -12 -19 -8 -3 -9 -6 -1 -11 14 -9 51 23 55 47
3 20 -13 32 -26 19z"/>
<path d="M5938 3263 c6 -2 18 -2 25 0 6 3 1 5 -13 5 -14 0 -19 -2 -12 -5z"/>
<path d="M8501 4314 c0 -11 3 -14 6 -6 3 7 2 16 -1 19 -3 4 -6 -2 -5 -13z"/>
<path d="M8365 4140 c3 -5 8 -10 11 -10 2 0 4 5 4 10 0 6 -5 10 -11 10 -5 0
-7 -4 -4 -10z"/>
<path d="M7720 11170 c0 -5 5 -10 10 -10 6 0 10 5 10 10 0 6 -4 10 -10 10 -5
0 -10 -4 -10 -10z"/>
<path d="M0 4990 l0 -4990 6300 0 6300 0 0 4424 0 4425 -22 4 -23 4 23 2 c12
0 22 6 22 11 0 9 -29 15 -52 11 -5 0 -8 8 -8 19 0 11 -4 20 -9 20 -5 0 -11 12
-14 28 -3 23 -5 21 -12 -15 -8 -44 -18 -53 -31 -31 -6 9 -10 6 -14 -10 -3 -13
-9 -23 -15 -23 -14 0 -19 41 -6 54 13 13 15 30 2 22 -5 -3 -12 5 -14 17 -2 13
-5 -6 -7 -42 -1 -36 -5 -56 -7 -45 -6 25 -21 35 -50 35 -13 0 -23 6 -23 14 0
24 19 29 45 12 15 -10 25 -12 25 -6 0 18 -27 40 -50 40 -11 0 -23 7 -26 15 -6
14 -8 13 -20 -2 -7 -10 -14 -13 -14 -8 0 6 -7 -1 -14 -14 -14 -24 -14 -24 -20
-3 -4 12 -3 30 3 39 6 11 11 13 11 5 0 -10 5 -10 22 2 17 12 25 13 37 4 14
-11 15 -10 1 5 -21 23 -80 40 -80 24 0 -7 -4 -6 -10 3 -5 8 -10 10 -10 4 0 -7
-7 -15 -16 -18 -12 -5 -14 -1 -9 17 5 20 5 20 -10 -3 l-16 -25 7 24 c4 16 3
21 -5 17 -6 -4 -11 -1 -11 6 0 10 -2 10 -9 -1 -7 -11 -9 -11 -14 0 -4 10 -6
10 -6 2 -1 -17 -38 -53 -45 -46 -3 4 -6 0 -7 -8 -1 -8 -4 -4 -7 8 -5 17 -11
20 -22 13 -13 -8 -13 -11 -1 -19 7 -5 10 -14 7 -20 -8 -12 -27 -15 -25 -3 3
19 -2 33 -10 28 -5 -4 -12 0 -14 6 -3 8 -6 6 -6 -4 -1 -10 -8 -18 -16 -18 -8
0 -15 -4 -15 -10 0 -5 -18 -10 -39 -10 -22 0 -43 -4 -46 -10 -13 -21 -33 -9
-39 24 -5 28 -21 46 -42 46 -12 0 -1 -33 16 -50 11 -11 20 -30 20 -41 0 -29
38 -89 56 -89 8 0 14 -4 14 -10 0 -5 -5 -10 -12 -10 -9 0 -9 -3 -1 -11 6 -6 9
-18 6 -27 -4 -10 -2 -13 5 -8 14 9 23 -7 27 -52 2 -20 8 -38 14 -40 6 -2 11
-10 11 -18 0 -8 7 -26 16 -40 9 -13 14 -27 10 -31 -3 -4 0 -13 8 -22 8 -9 24
-41 36 -73 11 -31 27 -62 35 -68 8 -7 15 -20 15 -30 0 -14 38 -101 71 -162 5
-10 9 -23 9 -30 0 -7 14 -46 30 -87 17 -40 30 -82 30 -92 0 -10 4 -19 9 -19 5
0 11 -18 15 -40 3 -22 11 -40 17 -40 6 0 9 -6 6 -14 -3 -8 3 -31 13 -51 10
-20 22 -61 26 -91 3 -30 10 -54 15 -54 5 0 9 -16 9 -35 0 -19 5 -35 10 -35 6
0 10 -14 10 -32 0 -17 6 -57 14 -87 19 -77 39 -182 39 -206 0 -11 3 -36 8 -55
8 -34 23 -157 37 -295 8 -92 9 -683 0 -807 -4 -53 -11 -131 -17 -175 -6 -43
-13 -109 -16 -148 -4 -38 -8 -72 -10 -75 -2 -3 -9 -46 -15 -96 -7 -49 -16 -93
-20 -99 -4 -5 -11 -39 -15 -75 -4 -36 -11 -69 -15 -75 -4 -5 -13 -46 -20 -90
-7 -44 -18 -98 -26 -120 -7 -22 -14 -48 -14 -57 0 -10 -4 -18 -9 -18 -5 0 -11
-12 -14 -27 -11 -54 -32 -128 -43 -148 -6 -11 -17 -41 -24 -68 -7 -26 -17 -50
-21 -53 -5 -3 -9 -18 -9 -33 0 -15 -11 -50 -25 -77 -14 -27 -25 -54 -25 -61 0
-6 -15 -42 -34 -80 -18 -37 -39 -84 -46 -103 -7 -19 -19 -42 -27 -51 -7 -8
-13 -20 -13 -25 0 -19 -141 -294 -150 -294 -6 0 -10 -9 -10 -20 0 -11 -9 -29
-20 -40 -11 -11 -20 -23 -20 -26 0 -17 -37 -82 -57 -99 -13 -11 -23 -27 -23
-34 0 -22 -43 -91 -57 -91 -7 0 -13 -8 -13 -18 0 -10 -9 -28 -20 -40 -11 -12
-20 -26 -20 -33 0 -6 -13 -24 -30 -39 -16 -15 -30 -33 -30 -39 0 -6 -5 -11
-12 -11 -6 0 -8 -3 -5 -6 10 -11 -12 -44 -26 -39 -17 7 -43 -35 -28 -45 7 -4
-5 -14 -28 -25 -35 -16 -40 -21 -37 -47 2 -19 -1 -28 -8 -25 -6 2 -25 -11 -43
-29 -18 -19 -28 -34 -22 -34 6 0 7 -5 4 -11 -4 -6 -13 -8 -21 -5 -10 4 -14 -2
-14 -20 0 -26 -23 -58 -34 -47 -3 4 -6 -1 -6 -10 0 -9 -7 -17 -15 -17 -8 0
-12 -6 -9 -15 4 -9 -3 -16 -20 -21 -14 -3 -25 -9 -24 -13 3 -23 -4 -41 -13
-36 -13 8 -51 -24 -43 -37 8 -12 -38 -58 -58 -58 -20 0 -24 -15 -8 -25 15 -9
-9 -37 -26 -31 -17 7 -28 -10 -12 -18 7 -3 1 -4 -14 -1 -32 6 -45 -10 -26 -32
11 -15 11 -16 -5 -10 -10 4 -16 3 -12 -3 3 -5 -3 -18 -15 -30 -11 -11 -20 -15
-20 -9 0 8 -5 7 -15 -1 -9 -7 -13 -15 -10 -18 6 -6 -34 -42 -47 -42 -4 0 -8
-5 -8 -10 0 -6 -20 -30 -45 -54 -25 -25 -45 -50 -45 -56 0 -6 -11 -15 -25 -20
-14 -5 -25 -15 -25 -22 0 -9 -3 -8 -10 2 -8 13 -11 11 -16 -8 -4 -12 -10 -22
-14 -22 -5 0 -11 -9 -15 -20 -6 -19 -56 -50 -82 -50 -16 0 -17 -17 0 -23 7 -3
5 -6 -5 -6 -10 -1 -18 -6 -18 -11 0 -6 -18 -17 -40 -26 -22 -9 -40 -22 -40
-30 0 -8 -5 -14 -11 -14 -6 0 -9 -7 -5 -15 3 -8 1 -15 -4 -15 -6 0 -10 5 -10
11 0 6 -13 1 -30 -11 -16 -12 -30 -28 -30 -35 0 -8 -5 -17 -12 -21 -6 -4 -8
-3 -4 4 11 17 -32 25 -49 8 -8 -8 -15 -19 -15 -24 0 -5 -11 -15 -25 -22 -14
-7 -25 -18 -25 -23 0 -5 -10 -18 -22 -29 -20 -17 -23 -18 -26 -4 -4 19 -7 19
-33 6 -10 -6 -19 -20 -19 -30 0 -11 -5 -20 -11 -20 -6 0 -8 7 -5 16 3 8 2 12
-4 9 -6 -3 -10 -15 -10 -26 0 -12 -13 -25 -35 -36 -19 -9 -35 -21 -35 -25 0
-5 -10 -4 -22 3 -18 10 -20 9 -15 -4 4 -10 -1 -18 -13 -22 -13 -4 -17 -12 -13
-23 6 -15 5 -15 -10 -3 -15 12 -22 12 -42 1 -13 -7 -22 -17 -19 -22 9 -14 -23
-38 -41 -32 -12 5 -16 2 -13 -12 2 -15 -2 -18 -19 -16 -13 2 -23 -2 -23 -7 0
-6 -13 -11 -28 -11 -20 0 -32 -8 -46 -30 -9 -17 -21 -28 -25 -26 -4 3 -17 -3
-27 -13 -11 -9 -25 -16 -32 -15 -7 1 -8 0 -2 -3 15 -7 12 -23 -5 -23 -8 0 -15
-7 -15 -15 0 -8 -4 -15 -10 -15 -5 0 -10 10 -10 22 0 27 -13 15 -15 -14 -2
-28 -18 -33 -39 -13 -15 15 -16 14 -17 -12 0 -24 -1 -25 -8 -8 -8 19 -9 18
-21 -7 -7 -16 -19 -28 -27 -28 -7 0 -13 -4 -13 -10 0 -5 -5 -10 -11 -10 -6 0
-9 6 -6 13 3 8 -3 13 -14 13 -22 0 -24 -7 -7 -24 10 -10 10 -15 -2 -22 -8 -5
-23 -10 -32 -10 -10 0 -18 -5 -18 -11 0 -7 -10 -9 -25 -7 -14 3 -25 1 -25 -3
0 -5 -7 -6 -16 -2 -12 4 -15 2 -12 -8 3 -8 -6 -19 -20 -26 -32 -17 -32 -17
-33 10 -1 14 -3 16 -6 6 -5 -21 -45 -39 -84 -39 -16 0 -32 -6 -35 -14 -3 -8
-13 -12 -22 -9 -13 3 -18 -3 -20 -23 -3 -33 -17 -51 -27 -34 -4 7 -1 16 6 21
11 7 10 9 -3 9 -19 0 -38 -28 -31 -47 3 -8 -5 -13 -21 -13 -14 0 -26 -3 -26
-8 0 -4 -9 -13 -20 -20 -17 -10 -23 -9 -41 9 -23 23 -39 18 -19 -5 6 -9 10
-21 7 -28 -4 -9 -6 -8 -6 2 -1 25 -77 13 -108 -16 -17 -16 -29 -21 -33 -14 -7
11 -24 -3 -32 -25 -1 -5 -7 -8 -13 -6 -5 2 -20 4 -33 4 -17 -1 -22 3 -18 16 4
9 -2 7 -14 -8 -11 -13 -20 -19 -21 -15 0 5 -4 0 -9 -11 -8 -18 -9 -18 -9 -2
-1 10 -5 16 -11 12 -5 -3 -6 -13 -3 -23 6 -14 4 -15 -8 -5 -9 7 -20 8 -29 3
-8 -5 -18 -6 -22 -3 -11 6 -39 -17 -33 -27 3 -4 -2 -11 -10 -14 -9 -3 -18 1
-21 9 -8 19 -21 19 -40 0 -9 -9 -34 -15 -61 -15 -35 0 -44 -3 -40 -14 7 -18
-24 -30 -51 -22 -11 4 -28 -2 -42 -14 -20 -17 -20 -20 -6 -26 26 -10 18 -24
-14 -24 -16 0 -30 4 -30 9 0 11 -70 3 -86 -10 -6 -5 -14 -6 -17 -2 -4 3 -7 1
-7 -6 0 -7 -4 -9 -10 -6 -5 3 -10 0 -10 -7 0 -9 -17 -13 -58 -13 -35 0 -70 -7
-91 -18 -49 -25 -111 -34 -111 -16 -1 10 -5 8 -15 -5 -9 -12 -21 -17 -36 -13
-28 7 -56 -3 -38 -14 8 -5 -2 -10 -27 -14 -21 -4 -49 -11 -61 -17 -12 -6 -35
-8 -52 -5 -17 4 -33 3 -35 -2 -3 -4 -18 -7 -33 -7 -15 1 -41 -5 -57 -12 -45
-22 -124 -40 -137 -31 -10 6 -10 11 0 23 8 10 9 16 3 16 -6 0 -14 -5 -18 -11
-3 -6 -23 -9 -44 -7 -21 2 -37 0 -34 -3 4 -7 -51 -12 -123 -12 -41 0 -63 -16
-25 -18 9 -1 1 -6 -18 -12 -19 -6 -38 -16 -42 -21 -4 -6 -21 -9 -38 -8 -18 2
-45 -2 -62 -9 -25 -10 -31 -10 -39 2 -7 12 -10 12 -21 0 -10 -11 -10 -14 0
-18 20 -8 3 -23 -26 -22 -20 0 -23 2 -10 7 13 5 15 11 8 22 -5 8 -10 11 -10 6
0 -5 -7 -3 -15 4 -10 9 -15 9 -15 1 0 -6 -11 -11 -25 -11 -14 0 -25 -4 -25 -9
0 -17 -32 -21 -44 -6 -9 12 -21 13 -64 6 -32 -5 -55 -4 -58 1 -4 5 -27 7 -53
3 -87 -12 -132 -12 -144 -1 -14 13 -88 6 -87 -9 2 -14 -44 -23 -52 -11 -5 7
-8 3 -9 -9 -1 -17 -2 -16 -9 5 -5 17 -8 19 -9 8 -1 -19 -26 -25 -35 -9 -3 5
-17 11 -31 13 -13 3 -22 2 -20 -2 3 -4 -4 -10 -15 -13 -18 -5 -25 4 -21 26 1
5 -9 5 -21 1 -13 -4 -36 -6 -53 -6 -16 1 -45 -3 -63 -9 -24 -8 -37 -8 -47 1
-11 9 -15 9 -15 1 0 -6 5 -11 11 -11 5 0 7 -5 4 -10 -4 -7 -12 -7 -24 0 -10 5
-42 11 -71 13 -37 2 -56 8 -66 22 -13 18 -14 17 -15 -11 -1 -23 -3 -25 -6 -7
-2 13 -9 23 -14 23 -5 0 -8 -6 -7 -12 2 -8 -8 -13 -24 -13 -16 1 -28 -3 -28
-7 0 -12 -38 -10 -45 3 -4 6 -20 7 -38 4 -31 -7 -31 -6 -12 10 19 16 19 16 -5
3 -14 -7 -29 -11 -35 -9 -26 8 -63 12 -97 11 -21 0 -38 3 -38 8 0 5 -7 9 -15
9 -8 0 -15 -4 -15 -9 0 -5 -5 -6 -12 -2 -6 4 -8 3 -4 -4 11 -18 -14 -25 -40
-11 -18 9 -27 10 -35 2 -8 -8 -20 -8 -41 -1 -23 8 -33 7 -47 -6 -20 -18 -42
-21 -39 -5 6 24 -29 33 -81 23 -29 -6 -51 -7 -51 -2 0 5 -13 7 -30 4 -18 -2
-30 0 -30 7 0 7 -6 5 -15 -4 -12 -11 -28 -14 -71 -9 -30 3 -59 10 -62 16 -12
16 -42 13 -42 -5 0 -12 -6 -9 -23 11 -21 24 -24 25 -34 10 -9 -15 -14 -15 -35
-4 -13 7 -46 15 -73 17 -28 2 -56 4 -62 4 -7 1 -13 7 -13 15 0 21 -32 25 -53
8 -11 -10 -17 -11 -17 -4 0 7 -5 12 -11 12 -5 0 -7 -4 -4 -10 8 -14 -18 -13
-32 1 -6 6 -33 13 -60 15 -26 2 -64 8 -83 13 -19 5 -62 17 -95 26 -33 9 -67
17 -75 18 -8 1 -25 11 -37 21 -13 11 -33 21 -46 23 -12 2 -23 8 -25 13 -2 6
-10 10 -17 10 -8 0 -19 18 -25 40 -6 22 -15 40 -19 40 -5 0 -13 -19 -19 -42
-9 -36 -16 -45 -44 -53 -28 -9 -37 -8 -51 5 -9 9 -17 21 -17 27 0 19 -30 24
-31 5 0 -14 -2 -14 -9 3 -7 17 -9 17 -9 3 -2 -35 -32 -18 -53 30 -12 26 -23
41 -26 34 -2 -7 2 -19 8 -27 19 -22 -6 -19 -40 5 -15 11 -30 17 -34 13 -3 -3
-6 -2 -6 3 0 5 -10 11 -22 11 -13 1 -24 7 -26 13 -2 5 -8 10 -14 10 -6 0 -17
8 -25 18 -10 12 -16 14 -19 5 -8 -20 -28 -15 -58 12 -14 13 -26 19 -26 13 0
-6 -8 -4 -18 5 -10 10 -26 17 -36 17 -10 0 -32 15 -49 34 -27 28 -35 31 -50
22 -14 -9 -21 -7 -32 7 -10 14 -14 15 -18 5 -3 -7 -6 -2 -6 12 -1 20 -3 22
-12 10 -8 -11 -12 -12 -16 -2 -2 6 -11 12 -18 12 -8 0 -21 7 -29 15 -12 12
-20 13 -35 6 -16 -9 -18 -8 -14 8 3 13 -2 21 -16 26 -12 3 -21 10 -21 14 0 4
-15 8 -32 9 -18 1 -38 9 -44 17 -6 8 -17 15 -23 15 -7 0 -10 4 -7 9 11 17 -31
42 -58 35 -20 -5 -26 -2 -26 10 0 8 -11 18 -25 22 -14 3 -25 11 -25 16 0 6 -6
5 -15 -2 -12 -10 -15 -9 -15 6 0 11 -10 24 -22 29 -13 6 -23 16 -23 24 0 8
-11 15 -24 16 -13 1 -29 9 -35 17 -6 8 -16 13 -22 11 -19 -6 -64 16 -64 31 0
8 -10 16 -22 18 -13 2 -22 9 -20 16 1 6 -7 12 -18 12 -11 0 -20 6 -20 13 0 7
-13 21 -30 30 -21 13 -30 14 -30 6 0 -7 -3 -9 -6 -6 -4 4 -1 13 6 22 10 11 10
15 0 15 -6 0 -25 9 -41 21 -16 11 -33 17 -39 14 -5 -3 -10 1 -10 9 0 9 -5 16
-10 16 -6 0 -15 10 -20 23 -7 17 -9 18 -9 5 -1 -19 -21 -26 -21 -8 0 6 -7 10
-15 10 -8 0 -15 7 -15 15 0 8 -7 15 -15 15 -8 0 -15 7 -15 15 0 9 -8 18 -17
22 -10 3 -27 16 -38 28 -11 12 -32 25 -47 29 -16 3 -28 13 -28 21 0 8 -4 15
-8 15 -5 0 -29 19 -54 43 -25 23 -50 42 -57 43 -27 2 -31 5 -31 17 0 15 -83
97 -99 97 -6 0 -11 7 -11 16 0 8 -5 12 -10 9 -6 -3 -10 -2 -10 2 0 5 -14 17
-31 27 -18 11 -28 23 -25 32 3 8 -1 14 -10 14 -8 0 -13 3 -10 8 8 13 -22 45
-38 39 -11 -4 -13 -1 -9 10 4 11 2 14 -5 9 -7 -4 -12 -2 -12 3 0 6 -6 11 -14
11 -8 0 -18 9 -21 20 -3 11 -13 20 -21 20 -8 0 -14 7 -14 16 0 8 -5 12 -10 9
-11 -7 -40 17 -40 33 0 5 -17 25 -37 45 -68 64 -103 104 -103 116 0 6 -7 11
-15 11 -8 0 -15 6 -15 14 0 8 -23 36 -51 63 -28 26 -57 59 -64 73 -7 14 -25
39 -39 55 -14 17 -26 33 -26 37 0 8 -11 21 -89 109 -23 25 -41 52 -41 60 0 8
-11 27 -25 43 -14 16 -25 33 -25 38 0 4 -7 8 -15 8 -9 0 -18 8 -21 18 -16 50
-27 71 -34 67 -4 -2 -13 8 -21 23 -7 15 -33 54 -57 86 -24 33 -50 75 -57 94
-8 18 -28 51 -45 72 -16 21 -30 42 -30 47 0 12 -51 105 -66 121 -8 7 -14 18
-14 23 0 15 -93 203 -105 211 -5 4 -7 8 -2 8 4 0 -4 18 -18 40 -14 22 -25 46
-25 54 0 7 -7 19 -15 26 -8 7 -15 22 -15 33 0 11 -11 43 -24 71 -30 62 -40 88
-37 99 1 4 -10 40 -25 80 -31 87 -36 103 -70 237 -14 58 -33 120 -40 138 -8
18 -14 50 -14 72 0 21 -4 41 -8 44 -5 3 -9 21 -10 41 -1 20 -5 41 -8 47 -4 6
-9 36 -11 67 -2 31 -9 71 -14 89 -17 52 -40 211 -54 376 -3 32 -8 62 -11 67
-8 13 -14 353 -6 364 4 6 15 16 25 24 15 12 19 12 32 -5 11 -15 17 -17 32 -8
40 25 9 67 -35 48 -9 -4 -26 -7 -37 -8 -24 -1 -26 27 -13 194 8 109 16 242 19
320 1 25 6 50 10 55 4 6 10 30 12 55 13 108 40 266 48 282 5 9 9 35 9 57 0 22
5 52 12 68 6 15 10 32 9 37 -1 4 2 13 7 20 9 12 28 80 36 131 6 40 36 147 45
160 15 22 42 115 36 125 -3 5 -1 10 4 10 6 0 11 8 11 18 0 10 14 46 30 80 17
34 30 69 30 77 0 7 13 38 30 68 16 30 30 64 30 75 0 11 6 27 12 34 7 7 19 27
27 43 7 17 17 37 22 45 9 16 62 125 73 150 3 8 16 31 28 50 31 50 76 131 88
159 6 13 18 29 26 35 8 6 16 21 17 33 0 13 7 25 14 27 7 3 13 12 13 20 0 8 11
27 25 42 14 15 25 35 25 46 0 10 10 29 23 42 12 12 29 35 37 52 8 16 26 45 40
64 15 19 35 53 45 75 10 22 29 51 41 64 13 13 24 31 24 40 0 9 14 27 30 41 17
14 32 32 33 40 2 8 17 31 35 50 18 19 51 63 74 98 22 34 45 62 50 62 11 0 33
20 39 36 7 19 81 104 159 183 98 98 132 145 123 167 -5 13 -3 16 10 11 20 -8
21 2 5 34 -8 14 -23 25 -38 26 -14 2 -49 6 -77 9 -35 5 -57 3 -67 -5 -12 -10
-19 -8 -34 7 -11 11 -21 25 -24 32 -3 10 -9 10 -27 1 -17 -10 -26 -10 -37 0
-11 9 -14 9 -14 -1 0 -10 -3 -10 -15 0 -9 7 -28 10 -47 6 -39 -7 -92 6 -94 22
-1 7 -2 15 -3 19 0 4 -10 -3 -21 -15 -24 -25 -32 -28 -24 -9 3 8 -1 14 -8 15
-7 1 -24 3 -38 5 -14 1 -30 -4 -37 -13 -10 -12 -11 -11 -6 10 6 24 6 24 -19 8
-20 -13 -28 -14 -31 -5 -4 9 -8 9 -14 0 -11 -16 -48 11 -37 28 5 9 2 10 -10 6
-10 -4 -22 -7 -27 -7 -6 0 -7 -5 -4 -10 4 -7 -24 -9 -85 -6 -73 4 -95 9 -106
23 -10 13 -16 15 -21 6 -5 -6 -15 -12 -23 -14 -20 -3 -71 22 -64 32 3 5 0 9
-6 9 -8 0 -10 -10 -6 -27 5 -21 4 -24 -4 -13 -9 13 -11 13 -20 0 -8 -13 -11
-13 -22 2 -8 11 -29 18 -54 20 -29 1 -40 6 -37 14 3 8 -2 11 -16 7 -11 -3 -19
-9 -16 -13 2 -4 -14 -6 -36 -4 -28 2 -42 -1 -46 -12 -3 -7 -10 -14 -15 -14 -6
0 -8 7 -4 15 4 10 -1 15 -14 15 -11 0 -20 -7 -20 -15 0 -18 -12 -19 -28 -3 -9
9 -16 7 -32 -7 -11 -10 -20 -13 -20 -7 0 18 -21 14 -36 -5 -9 -12 -13 -14 -14
-5 0 7 -4 11 -9 7 -5 -3 -13 0 -16 6 -4 6 -22 8 -45 4 -27 -5 -42 -2 -53 9
-14 14 -16 14 -21 0 -5 -14 -8 -14 -23 1 -14 14 -14 18 -2 26 11 7 11 9 -3 9
-17 0 -18 -244 -18 -4990z m1217 4864 c-3 -3 -12 -4 -19 -1 -8 3 -5 6 6 6 11
1 17 -2 13 -5z m449 -81 c-7 -7 -26 7 -26 19 0 6 6 6 15 -2 9 -7 13 -15 11
-17z m10414 -813 c0 -5 -5 -10 -11 -10 -5 0 -7 5 -4 10 3 6 8 10 11 10 2 0 4
-4 4 -10z m450 -100 c0 -11 -4 -20 -10 -20 -5 0 -10 9 -10 20 0 11 5 20 10 20
6 0 10 -9 10 -20z m-2315 -6540 c3 -5 2 -10 -4 -10 -5 0 -13 5 -16 10 -3 6 -2
10 4 10 5 0 13 -4 16 -10z"/>
<path d="M12401 8984 c0 -11 3 -14 6 -6 3 7 2 16 -1 19 -3 4 -6 -2 -5 -13z"/>
<path d="M12556 8972 c-3 -6 -1 -14 5 -17 15 -10 25 3 12 16 -7 7 -13 7 -17 1z"/>
<path d="M11200 8951 c0 -5 7 -12 16 -15 14 -5 15 -4 4 9 -14 17 -20 19 -20 6z"/>
<path d="M12302 6858 c5 -15 28 -18 29 -3 0 6 -7 12 -17 13 -10 3 -15 -1 -12
-10z"/>
<path d="M440 5190 c0 -5 5 -10 10 -10 6 0 10 5 10 10 0 6 -4 10 -10 10 -5 0
-10 -4 -10 -10z"/>
<path d="M1056 3785 c-3 -8 -1 -15 4 -15 13 0 22 18 11 24 -5 3 -11 -1 -15 -9z"/>
<path d="M1166 3524 c-9 -24 19 -48 41 -34 17 10 16 10 -2 8 -16 -2 -19 2 -17
20 4 25 -13 30 -22 6z"/>
<path d="M1271 3421 c-12 -21 -5 -31 21 -31 11 0 18 7 18 19 0 26 -27 34 -39
12z"/>
<path d="M1635 3010 c-3 -5 -1 -10 4 -10 6 0 11 5 11 10 0 6 -2 10 -4 10 -3 0
-8 -4 -11 -10z"/>
<path d="M2200 2646 c0 -9 7 -16 16 -16 9 0 14 5 12 12 -6 18 -28 21 -28 4z"/>
<path d="M2240 2535 c0 -9 6 -12 15 -9 8 4 15 7 15 9 0 2 -7 5 -15 9 -9 3 -15
0 -15 -9z"/>
<path d="M2495 2319 c-10 -15 3 -25 16 -12 7 7 7 13 1 17 -6 3 -14 1 -17 -5z"/>
<path d="M2515 2270 c-3 -5 1 -10 9 -10 9 0 16 5 16 10 0 6 -4 10 -9 10 -6 0
-13 -4 -16 -10z"/>
<path d="M3805 1519 c-4 -6 -5 -13 -2 -16 7 -7 27 6 27 18 0 12 -17 12 -25 -2z"/>
<path d="M3960 1500 c0 -5 5 -10 10 -10 6 0 10 5 10 10 0 6 -4 10 -10 10 -5 0
-10 -4 -10 -10z"/>
<path d="M6805 1440 c3 -5 8 -10 11 -10 2 0 4 5 4 10 0 6 -5 10 -11 10 -5 0
-7 -4 -4 -10z"/>
<path d="M6166 1200 c-17 -17 -17 -20 -3 -26 19 -7 46 15 39 34 -5 16 -13 14
-36 -8z"/>
<path d="M6920 1129 c0 -5 5 -7 10 -4 6 3 10 8 10 11 0 2 -4 4 -10 4 -5 0 -10
-5 -10 -11z"/>
</g>
</svg>
